<svg width="810" height="810"><g transform="translate(405,405)"><p id="intro">Click to zoom!</p><path id="path-0" d="M0,49.362709017600764A49.362709017600764,49.362709017600764 0 1,1 0,-49.362709017600764A49.362709017600764,49.362709017600764 0 1,1 0,49.362709017600764Z" fill-rule="evenodd" style="fill: #3182bd;"><title>class name: surf::idx_d1r1
member_name: 
 size: 109347.65MB</title></path><path id="path-1" d="M0,-121.5452468691798A121.5452468691798,121.5452468691798 0 0,1 4.408760820781469,-121.46526196618917L1.7905132708206157,-49.33022505303753A49.362709017600764,49.362709017600764 0 0,0 0,-49.362709017600764Z" fill-rule="evenodd" style="fill: #6baed6;"><title>class name: rrr_vector
member_name: R_BV
 size: 631.40MB</title></path><path id="path-2" d="M0,-205.90012810658274A205.90012810658274,205.90012810658274 0 0,1 0.028354524794274437,-205.9001261542306L0.016738006662115255,-121.54524571668357A121.5452468691798,121.5452468691798 0 0,0 0,-121.5452468691798Z" fill-rule="evenodd" style="fill: #9ecae1;"><title>class name: bit_vector
member_name: invert
 size: 2.40MB</title></path><path id="path-3" d="M0.028354524794274437,-205.9001261542306A205.90012810658274,205.90012810658274 0 0,1 0.8222742632050033,-205.89848619973662L0.48539808709438975,-121.5442776324203A121.5452468691798,121.5452468691798 0 0,0 0.016738006662115255,-121.54524571668357Z" fill-rule="evenodd" style="fill: #c6dbef;"><title>class name: int_vector
member_name: btnrp
 size: 67.10MB</title></path><path id="path-4" d="M0.8222742632050033,-205.89848619973662A205.90012810658274,205.90012810658274 0 0,1 1.033727320247199,-205.89753316184846L0.6102212926736132,-121.5437150430404A121.5452468691798,121.5452468691798 0 0,0 0.48539808709438975,-121.5442776324203Z" fill-rule="evenodd" style="fill: #e6550d;"><title>class name: bit_vector
member_name: btnr
 size: 17.87MB</title></path><path id="path-5" d="M1.033727320247199,-205.89753316184846A205.90012810658274,205.90012810658274 0 0,1 2.026101388430544,-205.89015922931065L1.1960312783841598,-121.5393621246671A121.5452468691798,121.5452468691798 0 0,0 0.6102212926736132,-121.5437150430404Z" fill-rule="evenodd" style="fill: #fd8d3c;"><title>class name: int_vector
member_name: rank_samples
 size: 83.88MB</title></path><path id="path-6" d="M2.026101388430544,-205.89015922931065A205.90012810658274,205.90012810658274 0 0,1 7.468530692962567,-205.76463205224394L4.408760767532325,-121.46526196812192A121.5452468691798,121.5452468691798 0 0,0 1.1960312783841598,-121.5393621246671Z" fill-rule="evenodd" style="fill: #fdae6b;"><title>class name: int_vector
member_name: bt
 size: 460.14MB</title></path><path id="path-7" d="M7.468530692962567,-205.76463205224394A205.90012810658274,205.90012810658274 0 0,1 7.468530783167703,-205.76463204896982L4.408760820781469,-121.46526196618917A121.5452468691798,121.5452468691798 0 0,0 4.408760767532325,-121.46526196812192Z" fill-rule="evenodd" style="fill: #fdd0a2;"><title>class name: unsigned long
member_name: size
 size: 0.00MB</title></path><path id="path-8" d="M4.408760820781469,-121.46526196618917A121.5452468691798,121.5452468691798 0 0,1 4.408760820781469,-121.46526196618917L1.7905132708206157,-49.33022505303753A49.362709017600764,49.362709017600764 0 0,0 1.7905132708206157,-49.33022505303753Z" fill-rule="evenodd" style="fill: #31a354;"><title>class name: rank_support_rrr
member_name: R_RANK
 size: 0.00MB</title></path><path id="path-9" d="M4.408760820781469,-121.46526196618917A121.5452468691798,121.5452468691798 0 0,1 4.408760820781469,-121.46526196618917L1.7905132708206157,-49.33022505303753A49.362709017600764,49.362709017600764 0 0,0 1.7905132708206157,-49.33022505303753Z" fill-rule="evenodd" style="fill: #74c476;"><title>class name: rank_support_rrr
member_name: D1_RANK
 size: 0.00MB</title></path><path id="path-10" d="M4.408760820781469,-121.46526196618917A121.5452468691798,121.5452468691798 0 0,1 8.983598863962072,-121.21279630443836L3.648474852578174,-49.22769213366015A49.362709017600764,49.362709017600764 0 0,0 1.7905132708206157,-49.33022505303753Z" fill-rule="evenodd" style="fill: #a1d99b;"><title>class name: rrr_vector
member_name: D1_BV
 size: 656.07MB</title></path><path id="path-11" d="M7.468530783167703,-205.76463204896982A205.90012810658274,205.90012810658274 0 0,1 7.496901667589362,-205.76360032739902L4.425508484722418,-121.4646529289138A121.5452468691798,121.5452468691798 0 0,0 4.408760820781469,-121.46526196618917Z" fill-rule="evenodd" style="fill: #9ecae1;"><title>class name: bit_vector
member_name: invert
 size: 2.40MB</title></path><path id="path-12" d="M7.496901667589362,-205.76360032739902A205.90012810658274,205.90012810658274 0 0,1 8.319588810234572,-205.73197903178715L4.911150299365443,-121.44598650934033A121.5452468691798,121.5452468691798 0 0,0 4.425508484722418,-121.4646529289138Z" fill-rule="evenodd" style="fill: #c6dbef;"><title>class name: int_vector
member_name: btnrp
 size: 69.59MB</title></path><path id="path-13" d="M8.319588810234572,-205.73197903178715A205.90012810658274,205.90012810658274 0 0,1 8.81357261576289,-205.71140875521186L5.202754700705283,-121.43384363518331A121.5452468691798,121.5452468691798 0 0,0 4.911150299365443,-121.44598650934033Z" fill-rule="evenodd" style="fill: #e6550d;"><title>class name: bit_vector
member_name: btnr
 size: 41.79MB</title></path><path id="path-14" d="M8.81357261576289,-205.71140875521186A205.90012810658274,205.90012810658274 0 0,1 9.777830178272845,-205.66783120194543L5.771967185216598,-121.40811929728012A121.5452468691798,121.5452468691798 0 0,0 5.202754700705283,-121.43384363518331Z" fill-rule="evenodd" style="fill: #fd8d3c;"><title>class name: int_vector
member_name: rank_samples
 size: 81.58MB</title></path><path id="path-15" d="M9.777830178272845,-205.66783120194543A205.90012810658274,205.90012810658274 0 0,1 15.218399679566199,-205.33695007353182L8.983598810823585,-121.21279630837667A121.5452468691798,121.5452468691798 0 0,0 5.771967185216598,-121.40811929728012Z" fill-rule="evenodd" style="fill: #fdae6b;"><title>class name: int_vector
member_name: bt
 size: 460.71MB</title></path><path id="path-16" d="M15.218399679566199,-205.33695007353182A205.90012810658274,205.90012810658274 0 0,1 15.218399769583879,-205.33695006686025L8.983598863962072,-121.21279630443836A121.5452468691798,121.5452468691798 0 0,0 8.983598810823585,-121.21279630837667Z" fill-rule="evenodd" style="fill: #fdd0a2;"><title>class name: unsigned long
member_name: size
 size: 0.00MB</title></path><path id="path-17" d="M8.983598863962072,-121.21279630443836A121.5452468691798,121.5452468691798 0 0,1 120.2634985566037,17.605054712087764L48.84215744839301,7.149873938937961A49.362709017600764,49.362709017600764 0 0,0 3.648474852578174,-49.22769213366015Z" fill-rule="evenodd" style="fill: #c7e9c0;"><title>class name: wt_int
member_name: WTD1
 size: 28579.08MB</title></path><path id="path-18" d="M15.218399769583879,-205.33695006686025A205.90012810658274,205.90012810658274 0 0,1 15.21839981459268,-205.33695006352443L8.98359889053129,-121.21279630246919A121.5452468691798,121.5452468691798 0 0,0 8.983598863962072,-121.21279630443836Z" fill-rule="evenodd" style="fill: #756bb1;"><title>class name: unsigned int
member_name: max_level
 size: 0.00MB</title></path><path id="path-19" d="M15.21839981459268,-205.33695006352443A205.90012810658274,205.90012810658274 0 0,1 15.21839981459268,-205.33695006352443L8.98359889053129,-121.21279630246919A121.5452468691798,121.5452468691798 0 0,0 8.98359889053129,-121.21279630246919Z" fill-rule="evenodd" style="fill: #9e9ac8;"><title>class name: select_support_rrr
member_name: tree_select_1
 size: 0.00MB</title></path><path id="path-20" d="M15.21839981459268,-205.33695006352443A205.90012810658274,205.90012810658274 0 0,1 15.21839981459268,-205.33695006352443L8.98359889053129,-121.21279630246919A121.5452468691798,121.5452468691798 0 0,0 8.98359889053129,-121.21279630246919Z" fill-rule="evenodd" style="fill: #bcbddc;"><title>class name: rank_support_rrr
member_name: tree_rank
 size: 0.00MB</title></path><path id="path-21" d="M15.21839981459268,-205.33695006352443A205.90012810658274,205.90012810658274 0 0,1 15.218399904610283,-205.33695005685286L8.983598943669731,-121.21279629853088A121.5452468691798,121.5452468691798 0 0,0 8.98359889053129,-121.21279630246919Z" fill-rule="evenodd" style="fill: #dadaeb;"><title>class name: unsigned long
member_name: sigma
 size: 0.00MB</title></path><path id="path-22" d="M15.218399904610283,-205.33695005685286A205.90012810658274,205.90012810658274 0 0,1 15.218399904610283,-205.33695005685286L8.983598943669731,-121.21279629853088A121.5452468691798,121.5452468691798 0 0,0 8.983598943669731,-121.21279629853088Z" fill-rule="evenodd" style="fill: #636363;"><title>class name: select_support_rrr
member_name: tree_select_0
 size: 0.00MB</title></path><path id="path-23" d="M15.218399904610283,-205.33695005685286A205.90012810658274,205.90012810658274 0 0,1 203.7288203264047,29.82332179215725L120.26349856432155,17.605054659365475A121.5452468691798,121.5452468691798 0 0,0 8.983598943669731,-121.21279629853088Z" fill-rule="evenodd" style="fill: #969696;"><title>class name: rrr_vector
member_name: tree
 size: 28579.08MB</title></path><path id="path-24" d="M22.12021530246056,-298.4609139777032A299.27950330323876,299.27950330323876 0 0,1 22.54844674064339,-298.4288669800852L15.513017167095414,-205.31490216903512A205.90012810658274,205.90012810658274 0 0,0 15.218399904610283,-205.33695005685286Z" fill-rule="evenodd" style="fill: #9ecae1;"><title>class name: bit_vector
member_name: invert
 size: 24.97MB</title></path><path id="path-25" d="M22.54844674064339,-298.4288669800852A299.27950330323876,299.27950330323876 0 0,1 38.778784104204455,-296.7565113031772L26.67926311940923,-204.16434476595686A205.90012810658274,205.90012810658274 0 0,0 15.513017167095414,-205.31490216903512Z" fill-rule="evenodd" style="fill: #c6dbef;"><title>class name: int_vector
member_name: btnrp
 size: 948.91MB</title></path><path id="path-26" d="M38.778784104204455,-296.7565113031772A299.27950330323876,299.27950330323876 0 0,1 294.191025984209,-54.95326494205369L202.39932661402582,-37.80708056033916A205.90012810658274,205.90012810658274 0 0,0 26.67926311940923,-204.16434476595686Z" fill-rule="evenodd" style="fill: #e6550d;"><title>class name: bit_vector
member_name: btnr
 size: 21861.76MB</title></path><path id="path-27" d="M294.191025984209,-54.95326494205369A299.27950330323876,299.27950330323876 0 0,1 296.74867503425213,-38.83870444349402L204.1589535221271,-26.72048747790935A205.90012810658274,205.90012810658274 0 0,0 202.39932661402582,-37.80708056033916Z" fill-rule="evenodd" style="fill: #fd8d3c;"><title>class name: int_vector
member_name: rank_samples
 size: 948.91MB</title></path><path id="path-28" d="M296.74867503425213,-38.83870444349402A299.27950330323876,299.27950330323876 0 0,1 296.1234687925613,43.34872925120189L203.72882033947894,29.823321702844623A205.90012810658274,205.90012810658274 0 0,0 204.1589535221271,-26.72048747790935Z" fill-rule="evenodd" style="fill: #fdae6b;"><title>class name: int_vector
member_name: bt
 size: 4794.52MB</title></path><path id="path-29" d="M296.1234687925613,43.34872925120189A299.27950330323876,299.27950330323876 0 0,1 296.12346877355765,43.34872938101938L203.7288203264047,29.82332179215725A205.90012810658274,205.90012810658274 0 0,0 203.72882033947894,29.823321702844623Z" fill-rule="evenodd" style="fill: #fdd0a2;"><title>class name: unsigned long
member_name: size
 size: 0.00MB</title></path><path id="path-30" d="M203.7288203264047,29.82332179215725A205.90012810658274,205.90012810658274 0 0,1 203.7288203133305,29.82332188146988L120.2634985566037,17.605054712087764A121.5452468691798,121.5452468691798 0 0,0 120.26349856432155,17.605054659365475Z" fill-rule="evenodd" style="fill: #fdd0a2;"><title>class name: unsigned long
member_name: size
 size: 0.00MB</title></path><path id="path-31" d="M120.2634985566037,17.605054712087764A121.5452468691798,121.5452468691798 0 0,1 -28.991636599319023,118.03699438643332L-11.774263151043009,47.93791577453399A49.362709017600764,49.362709017600764 0 0,0 48.84215744839301,7.149873938937961Z" fill-rule="evenodd" style="fill: #bdbdbd;"><title>class name: wt_int
member_name: WTR1
 size: 28998.79MB</title></path><path id="path-32" d="M203.7288203133305,29.82332188146988A205.90012810658274,205.90012810658274 0 0,1 203.72882030679335,29.823321926126198L120.26349855274475,17.60505473844891A121.5452468691798,121.5452468691798 0 0,0 120.2634985566037,17.605054712087764Z" fill-rule="evenodd" style="fill: #756bb1;"><title>class name: unsigned int
member_name: max_level
 size: 0.00MB</title></path><path id="path-33" d="M203.72882030679335,29.823321926126198A205.90012810658274,205.90012810658274 0 0,1 203.72882030679335,29.823321926126198L120.26349855274475,17.60505473844891A121.5452468691798,121.5452468691798 0 0,0 120.26349855274475,17.60505473844891Z" fill-rule="evenodd" style="fill: #9e9ac8;"><title>class name: select_support_rrr
member_name: tree_select_1
 size: 0.00MB</title></path><path id="path-34" d="M203.72882030679335,29.823321926126198A205.90012810658274,205.90012810658274 0 0,1 203.72882030679335,29.823321926126198L120.26349855274475,17.60505473844891A121.5452468691798,121.5452468691798 0 0,0 120.26349855274475,17.60505473844891Z" fill-rule="evenodd" style="fill: #bcbddc;"><title>class name: rank_support_rrr
member_name: tree_rank
 size: 0.00MB</title></path><path id="path-35" d="M203.72882030679335,29.823321926126198A205.90012810658274,205.90012810658274 0 0,1 203.72882029371914,29.823322015438826L120.26349854502688,17.605054791171195A121.5452468691798,121.5452468691798 0 0,0 120.26349855274475,17.60505473844891Z" fill-rule="evenodd" style="fill: #dadaeb;"><title>class name: unsigned long
member_name: sigma
 size: 0.00MB</title></path><path id="path-36" d="M203.72882029371914,29.823322015438826A205.90012810658274,205.90012810658274 0 0,1 203.72882029371914,29.823322015438826L120.26349854502688,17.605054791171195A121.5452468691798,121.5452468691798 0 0,0 120.26349854502688,17.605054791171195Z" fill-rule="evenodd" style="fill: #636363;"><title>class name: select_support_rrr
member_name: tree_select_0
 size: 0.00MB</title></path><path id="path-37" d="M203.72882029371914,29.823322015438826A205.90012810658274,205.90012810658274 0 0,1 -49.11242383332039,199.95707684281518L-28.991636547572757,118.03699439914297A121.5452468691798,121.5452468691798 0 0,0 120.26349854502688,17.605054791171195Z" fill-rule="evenodd" style="fill: #969696;"><title>class name: rrr_vector
member_name: tree
 size: 28998.79MB</title></path><path id="path-38" d="M296.1234687260486,43.34872970556313A299.27950330323876,299.27950330323876 0 0,1 296.0295845101414,43.985295181303L203.66422926135934,30.261270192832935A205.90012810658274,205.90012810658274 0 0,0 203.72882029371914,29.823322015438826Z" fill-rule="evenodd" style="fill: #9ecae1;"><title>class name: bit_vector
member_name: invert
 size: 37.42MB</title></path><path id="path-39" d="M296.0295845101414,43.985295181303A299.27950330323876,299.27950330323876 0 0,1 291.45254492106324,67.99731727405624L200.51528980062653,46.78120680869434A205.90012810658274,205.90012810658274 0 0,0 203.66422926135934,30.261270192832935Z" fill-rule="evenodd" style="fill: #c6dbef;"><title>class name: int_vector
member_name: btnrp
 size: 1421.84MB</title></path><path id="path-40" d="M291.45254492106324,67.99731727405624A299.27950330323876,299.27950330323876 0 0,1 75.72446071679022,289.54106297135905L52.09737382713796,199.20021685385433A205.90012810658274,205.90012810658274 0 0,0 200.51528980062653,46.78120680869434Z" fill-rule="evenodd" style="fill: #e6550d;"><title>class name: bit_vector
member_name: btnr
 size: 18896.21MB</title></path><path id="path-41" d="M75.72446071679022,289.54106297135905A299.27950330323876,299.27950330323876 0 0,1 51.208815071354174,294.86586502411757L35.230951224530536,202.86360647026348A205.90012810658274,205.90012810658274 0 0,0 52.09737382713796,199.20021685385433Z" fill-rule="evenodd" style="fill: #fd8d3c;"><title>class name: int_vector
member_name: rank_samples
 size: 1459.26MB</title></path><path id="path-42" d="M51.208815071354174,294.86586502411757A299.27950330323876,299.27950330323876 0 0,1 -71.38578261112687,290.6411724763548L-49.11242374566125,199.95707686434554A205.90012810658274,205.90012810658274 0 0,0 35.230951224530536,202.86360647026348Z" fill-rule="evenodd" style="fill: #fdae6b;"><title>class name: int_vector
member_name: bt
 size: 7184.05MB</title></path><path id="path-43" d="M-71.38578261112687,290.6411724763548A299.27950330323876,299.27950330323876 0 0,1 -71.38578273854098,290.6411724450601L-49.11242383332039,199.95707684281518A205.90012810658274,205.90012810658274 0 0,0 -49.11242374566125,199.95707686434554Z" fill-rule="evenodd" style="fill: #fdd0a2;"><title>class name: unsigned long
member_name: size
 size: 0.00MB</title></path><path id="path-44" d="M-49.11242383332039,199.95707684281518A205.90012810658274,205.90012810658274 0 0,1 -49.11242392097962,199.95707682128477L-28.991636599319023,118.03699438643332A121.5452468691798,121.5452468691798 0 0,0 -28.991636547572757,118.03699439914297Z" fill-rule="evenodd" style="fill: #fdd0a2;"><title>class name: unsigned long
member_name: size
 size: 0.00MB</title></path><path id="path-45" d="M-28.991636599319023,118.03699438643332A121.5452468691798,121.5452468691798 0 0,1 -49.78367612271509,110.88206630559529L-20.218455115049018,45.03211203482539A49.362709017600764,49.362709017600764 0 0,0 -11.774263151043009,47.93791577453399Z" fill-rule="evenodd" style="fill: #d9d9d9;"><title>class name: surf::df_sada
member_name: DF
 size: 3152.72MB</title></path><path id="path-46" d="M-49.11242392097962,199.95707682128477A205.90012810658274,205.90012810658274 0 0,1 -49.11242392097962,199.95707682128477L-28.991636599319023,118.03699438643332A121.5452468691798,121.5452468691798 0 0,0 -28.991636599319023,118.03699438643332Z" fill-rule="evenodd" style="fill: #3182bd;"><title>class name: select_support_rrr
member_name: m_sel
 size: 0.00MB</title></path><path id="path-47" d="M-49.11242392097962,199.95707682128477A205.90012810658274,205.90012810658274 0 0,1 -84.33456309744737,187.83648266902182L-49.78367612271509,110.88206630559529A121.5452468691798,121.5452468691798 0 0,0 -28.991636599319023,118.03699438643332Z" fill-rule="evenodd" style="fill: #6baed6;"><title>class name: rrr_vector
member_name: m_bv
 size: 3152.72MB</title></path><path id="path-48" d="M-71.38578286595524,290.6411724137652A299.27950330323876,299.27950330323876 0 0,1 -71.46587790655359,290.62148818089605L-49.16752819286553,199.94353434335122A205.90012810658274,205.90012810658274 0 0,0 -49.11242392097962,199.95707682128477Z" fill-rule="evenodd" style="fill: #9ecae1;"><title>class name: bit_vector
member_name: invert
 size: 4.80MB</title></path><path id="path-49" d="M-71.46587790655359,290.62148818089605A299.27950330323876,299.27950330323876 0 0,1 -74.18583309844989,289.9391026835156L-51.038819464985046,199.47406262952543A205.90012810658274,205.90012810658274 0 0,0 -49.16752819286553,199.94353434335122Z" fill-rule="evenodd" style="fill: #c6dbef;"><title>class name: int_vector
member_name: btnrp
 size: 163.07MB</title></path><path id="path-50" d="M-74.18583309844989,289.9391026835156A299.27950330323876,299.27950330323876 0 0,1 -105.19591295361508,280.1821568110441L-72.37332231032165,192.76141982272637A205.90012810658274,205.90012810658274 0 0,0 -51.038819464985046,199.47406262952543Z" fill-rule="evenodd" style="fill: #e6550d;"><title>class name: bit_vector
member_name: btnr
 size: 1891.33MB</title></path><path id="path-51" d="M-105.19591295361508,280.1821568110441A299.27950330323876,299.27950330323876 0 0,1 -107.9704359188916,279.124714177942L-74.28215545017841,192.03391402557705A205.90012810658274,205.90012810658274 0 0,0 -72.37332231032165,192.76141982272637Z" fill-rule="evenodd" style="fill: #fd8d3c;"><title>class name: int_vector
member_name: rank_samples
 size: 172.66MB</title></path><path id="path-52" d="M-107.9704359188916,279.124714177942A299.27950330323876,299.27950330323876 0 0,1 -122.58178934881586,273.02367299828705L-84.3345630151017,187.83648270599323A205.90012810658274,205.90012810658274 0 0,0 -74.28215545017841,192.03391402557705Z" fill-rule="evenodd" style="fill: #fdae6b;"><title>class name: int_vector
member_name: bt
 size: 920.86MB</title></path><path id="path-53" d="M-122.58178934881586,273.02367299828705A299.27950330323876,299.27950330323876 0 0,1 -122.58178946850677,273.0236729445484L-84.33456309744737,187.83648266902182A205.90012810658274,205.90012810658274 0 0,0 -84.3345630151017,187.83648270599323Z" fill-rule="evenodd" style="fill: #fdd0a2;"><title>class name: unsigned long
member_name: size
 size: 0.00MB</title></path><path id="path-54" d="M-49.78367612271509,110.88206630559529A121.5452468691798,121.5452468691798 0 0,1 -51.75907523676287,109.97383855774511L-21.02071644712166,44.66325695251112A49.362709017600764,49.362709017600764 0 0,0 -20.218455115049018,45.03211203482539Z" fill-rule="evenodd" style="fill: #9ecae1;"><title>class name: surf::doc_perm
member_name: DOCPERM
 size: 311.31MB</title></path><path id="path-55" d="M-84.33456309744737,187.83648266902182A205.90012810658274,205.90012810658274 0 0,1 -86.01118655371415,187.0746870689066L-50.77340650206248,110.43236947863687A121.5452468691798,121.5452468691798 0 0,0 -49.78367612271509,110.88206630559529Z" fill-rule="evenodd" style="fill: #c6dbef;"><title>class name: int_vector
member_name: len2id
 size: 155.66MB</title></path><path id="path-56" d="M-86.01118655371415,187.0746870689066A205.90012810658274,205.90012810658274 0 0,1 -87.68092950107834,186.2979263334246L-51.75907523676281,109.97383855774513A121.5452468691798,121.5452468691798 0 0,0 -50.77340650206248,110.43236947863687Z" fill-rule="evenodd" style="fill: #e6550d;"><title>class name: int_vector
member_name: id2len
 size: 155.66MB</title></path><path id="path-57" d="M-51.75907523676287,109.97383855774511A121.5452468691798,121.5452468691798 0 0,1 -2.2327499598355525e-14,-121.5452468691798L-9.06778252670358e-15,-49.362709017600764A49.362709017600764,49.362709017600764 0 0,0 -21.02071644712166,44.66325695251112Z" fill-rule="evenodd" style="fill: #fd8d3c;"><title>class name: csa_wt
member_name: CSA
 size: 47018.28MB</title></path><path id="path-58" d="M-87.68092950107842,186.29792633342458A205.90012810658274,205.90012810658274 0 0,1 -91.8123064324774,184.29694284457335L-54.19787522029949,108.7926346684125A121.5452468691798,121.5452468691798 0 0,0 -51.75907523676287,109.97383855774511Z" fill-rule="evenodd" style="fill: #fdae6b;"><title>class name: int_alphabet
member_name: alphabet
 size: 388.00MB</title></path><path id="path-59" d="M-127.44579263527959,270.78735390892723A299.27950330323876,299.27950330323876 0 0,1 -127.44579275398999,270.7873538530563L-87.68092958274954,186.29792629498615A205.90012810658274,205.90012810658274 0 0,0 -87.68092950107842,186.29792633342458Z" fill-rule="evenodd" style="fill: #fdd0a2;"><title>class name: unsigned long
member_name: m_sigma
 size: 0.00MB</title></path><path id="path-60" d="M-127.44579275398999,270.7873538530563A299.27950330323876,299.27950330323876 0 0,1 -133.45082196873744,267.8788890773243L-91.81230600830942,184.29694305588365A205.90012810658274,205.90012810658274 0 0,0 -87.68092958274954,186.29792629498615Z" fill-rule="evenodd" style="fill: #31a354;"><title>class name: int_vector
member_name: m_C
 size: 388.00MB</title></path><path id="path-61" d="M-133.45082196873744,267.8788890773243A299.27950330323876,299.27950330323876 0 0,1 -133.45082196873744,267.8788890773243L-91.81230600830942,184.29694305588365A205.90012810658274,205.90012810658274 0 0,0 -91.81230600830942,184.29694305588365Z" fill-rule="evenodd" style="fill: #74c476;"><title>class name: rank_support_sd
member_name: m_char_rank
 size: 0.00MB</title></path><path id="path-62" d="M-133.45082196873744,267.8788890773243A299.27950330323876,299.27950330323876 0 0,1 -133.45082196873744,267.8788890773243L-91.81230600830942,184.29694305588365A205.90012810658274,205.90012810658274 0 0,0 -91.81230600830942,184.29694305588365Z" fill-rule="evenodd" style="fill: #a1d99b;"><title>class name: select_support_sd
member_name: m_char_select
 size: 0.00MB</title></path><path id="path-63" d="M-133.45082196873744,267.8788890773243A299.27950330323876,299.27950330323876 0 0,1 -133.45082258527304,267.87888877018105L-91.81230643247733,184.2969428445734A205.90012810658274,205.90012810658274 0 0,0 -91.81230600830942,184.29694305588365Z" fill-rule="evenodd" style="fill: #c7e9c0;"><title>class name: sd_vector
member_name: m_char
 size: 0.00MB</title></path><path id="path-64" d="M-178.36279530779785,358.0317210108459A400,400 0 0,1 -178.36279546475512,358.0317209326536L-133.4508220861727,267.8788890188209A299.27950330323876,299.27950330323876 0 0,0 -133.45082196873744,267.8788890773243Z" fill-rule="evenodd" style="fill: #756bb1;"><title>class name: select_support_mcl
member_name: high_1_select
 size: 0.00MB</title></path><path id="path-65" d="M-178.36279546475512,358.0317209326536A400,400 0 0,1 -178.36279562171256,358.0317208544612L-133.45082220360806,267.8788889603174A299.27950330323876,299.27950330323876 0 0,0 -133.4508220861727,267.8788890188209Z" fill-rule="evenodd" style="fill: #9e9ac8;"><title>class name: bit_vector
member_name: high
 size: 0.00MB</title></path><path id="path-66" d="M-178.36279562171256,358.0317208544612A400,400 0 0,1 -178.36279579828974,358.0317207664947L-133.45082233572288,267.878888894501A299.27950330323876,299.27950330323876 0 0,0 -133.45082220360806,267.8788889603174Z" fill-rule="evenodd" style="fill: #bcbddc;"><title>class name: int_vector
member_name: low
 size: 0.00MB</title></path><path id="path-67" d="M-178.36279579828974,358.0317207664947A400,400 0 0,1 -178.36279595524732,358.0317206883022L-133.45082245315837,267.8788888359975A299.27950330323876,299.27950330323876 0 0,0 -133.45082233572288,267.878888894501Z" fill-rule="evenodd" style="fill: #dadaeb;"><title>class name: select_support_mcl
member_name: high_0_select
 size: 0.00MB</title></path><path id="path-68" d="M-178.36279595524732,358.0317206883022A400,400 0 0,1 -178.36279597486688,358.0317206785282L-133.4508224678377,267.8788888286846A299.27950330323876,299.27950330323876 0 0,0 -133.45082245315837,267.8788888359975Z" fill-rule="evenodd" style="fill: #636363;"><title>class name: unsigned char
member_name: wl
 size: 0.00MB</title></path><path id="path-69" d="M-178.36279597486688,358.0317206785282A400,400 0 0,1 -178.36279613182433,358.0317206003357L-133.45082258527304,267.87888877018105A299.27950330323876,299.27950330323876 0 0,0 -133.4508224678377,267.8788888286846Z" fill-rule="evenodd" style="fill: #fdd0a2;"><title>class name: unsigned long
member_name: size
 size: 0.00MB</title></path><path id="path-70" d="M-91.8123064324774,184.29694284457335A205.90012810658274,205.90012810658274 0 0,1 -91.81415080133922,184.2960240128257L-54.19896397274801,108.79209227131626A121.5452468691798,121.5452468691798 0 0,0 -54.19787522029949,108.7926346684125Z" fill-rule="evenodd" style="fill: #969696;"><title>class name: int_vector
member_name: isa_samples
 size: 0.17MB</title></path><path id="path-71" d="M-91.81415080133922,184.2960240128257A205.90012810658274,205.90012810658274 0 0,1 -91.81599516100553,184.29510516262033L-54.20005271976832,108.79154986332422A121.5452468691798,121.5452468691798 0 0,0 -54.19896397274801,108.79209227131626Z" fill-rule="evenodd" style="fill: #bdbdbd;"><title>class name: int_vector
member_name: sa_samples
 size: 0.17MB</title></path><path id="path-72" d="M-91.81599516100553,184.29510516262033A205.90012810658274,205.90012810658274 0 0,1 -3.782323987172547e-14,-205.90012810658274L-2.2327499598355525e-14,-121.5452468691798A121.5452468691798,121.5452468691798 0 0,0 -54.20005271976832,108.79154986332422Z" fill-rule="evenodd" style="fill: #d9d9d9;"><title>class name: wt_int
member_name: wavelet_tree
 size: 46629.93MB</title></path><path id="path-73" d="M-133.4561842178854,267.876217666733A299.27950330323876,299.27950330323876 0 0,1 -133.4561842766024,267.8762176374802L-91.815995201402,184.2951051424948A205.90012810658274,205.90012810658274 0 0,0 -91.81599516100553,184.29510516262033Z" fill-rule="evenodd" style="fill: #756bb1;"><title>class name: unsigned int
member_name: max_level
 size: 0.00MB</title></path><path id="path-74" d="M-133.4561842766024,267.8762176374802A299.27950330323876,299.27950330323876 0 0,1 -133.4561842766024,267.8762176374802L-91.815995201402,184.2951051424948A205.90012810658274,205.90012810658274 0 0,0 -91.815995201402,184.2951051424948Z" fill-rule="evenodd" style="fill: #9e9ac8;"><title>class name: select_support_rrr
member_name: tree_select_1
 size: 0.00MB</title></path><path id="path-75" d="M-133.4561842766024,267.8762176374802A299.27950330323876,299.27950330323876 0 0,1 -133.4561842766024,267.8762176374802L-91.815995201402,184.2951051424948A205.90012810658274,205.90012810658274 0 0,0 -91.815995201402,184.2951051424948Z" fill-rule="evenodd" style="fill: #bcbddc;"><title>class name: rank_support_rrr
member_name: tree_rank
 size: 0.00MB</title></path><path id="path-76" d="M-133.4561842766024,267.8762176374802A299.27950330323876,299.27950330323876 0 0,1 -133.45618439403668,267.87621757897426L-91.81599528219516,184.29510510224355A205.90012810658274,205.90012810658274 0 0,0 -91.815995201402,184.2951051424948Z" fill-rule="evenodd" style="fill: #dadaeb;"><title>class name: unsigned long
member_name: sigma
 size: 0.00MB</title></path><path id="path-77" d="M-133.45618439403668,267.87621757897426A299.27950330323876,299.27950330323876 0 0,1 -133.45618439403668,267.87621757897426L-91.81599528219516,184.29510510224355A205.90012810658274,205.90012810658274 0 0,0 -91.81599528219516,184.29510510224355Z" fill-rule="evenodd" style="fill: #636363;"><title>class name: select_support_rrr
member_name: tree_select_0
 size: 0.00MB</title></path><path id="path-78" d="M-133.45618439403668,267.87621757897426A299.27950330323876,299.27950330323876 0 0,1 -1.3120116722213993e-7,-299.27950330323876L-9.026457488938052e-8,-205.90012810658274A205.90012810658274,205.90012810658274 0 0,0 -91.81599528219516,184.29510510224355Z" fill-rule="evenodd" style="fill: #969696;"><title>class name: rrr_vector
member_name: tree
 size: 46629.93MB</title></path><path id="path-79" d="M-178.36996242113509,358.0281504377588A400,400 0 0,1 -179.70157516582458,357.3616429933709L-134.452495396094,267.3775375367134A299.27950330323876,299.27950330323876 0 0,0 -133.45618439403668,267.87621757897426Z" fill-rule="evenodd" style="fill: #9ecae1;"><title>class name: bit_vector
member_name: invert
 size: 64.79MB</title></path><path id="path-80" d="M-179.70157516582458,357.3616429933709A400,400 0 0,1 -228.29208055052214,328.4550592667342L-170.8078511880581,245.74966748696016A299.27950330323876,299.27950330323876 0 0,0 -134.452495396094,267.3775375367134Z" fill-rule="evenodd" style="fill: #c6dbef;"><title>class name: int_vector
member_name: btnrp
 size: 2461.94MB</title></path><path id="path-81" d="M-228.29208055052214,328.4550592667342A400,400 0 0,1 -302.1520501102643,-262.1147432216742L-226.06978869763802,-196.11392539959652A299.27950330323876,299.27950330323876 0 0,0 -170.8078511880581,245.74966748696016Z" fill-rule="evenodd" style="fill: #e6550d;"><title>class name: bit_vector
member_name: btnr
 size: 29201.97MB</title></path><path id="path-82" d="M-302.1520501102643,-262.1147432216742A400,400 0 0,1 -262.1772690422258,-302.09779806804335L-196.16070714089233,-226.02919738701533A299.27950330323876,299.27950330323876 0 0,0 -226.06978869763802,-196.11392539959652Z" fill-rule="evenodd" style="fill: #fd8d3c;"><title>class name: int_vector
member_name: rank_samples
 size: 2461.94MB</title></path><path id="path-83" d="M-262.1772690422258,-302.09779806804335A400,400 0 0,1 -3.507122276196253e-7,-400L-2.6240245321093463e-7,-299.27950330323876A299.27950330323876,299.27950330323876 0 0,0 -196.16070714089233,-226.02919738701533Z" fill-rule="evenodd" style="fill: #fdae6b;"><title>class name: int_vector
member_name: bt
 size: 12439.29MB</title></path><path id="path-84" d="M-3.507122276196253e-7,-400A400,400 0 0,1 -1.7535603444142724e-7,-400L-1.3120116722213993e-7,-299.27950330323876A299.27950330323876,299.27950330323876 0 0,0 -2.6240245321093463e-7,-299.27950330323876Z" fill-rule="evenodd" style="fill: #fdd0a2;"><title>class name: unsigned long
member_name: size
 size: 0.00MB</title></path><path id="path-85" d="M-1.3120116722213993e-7,-299.27950330323876A299.27950330323876,299.27950330323876 0 0,1 -5.497675278895253e-14,-299.27950330323876L-3.782323987172547e-14,-205.90012810658274A205.90012810658274,205.90012810658274 0 0,0 -9.026457488938052e-8,-205.90012810658274Z" fill-rule="evenodd" style="fill: #fdd0a2;"><title>class name: unsigned long
member_name: size
 size: 0.00MB</title></path><text text-anchor="start" dy=".2em" transform="rotate(90)translate(5)rotate(0)" style="opacity: 1; fill: #eeeeee;"><title>class name: surf::idx_d1r1
member_name: 
 size: 109347.65MB</title><tspan x="0"></tspan><tspan x="0" dy="1em"></tspan></text><text text-anchor="start" dy=".2em" transform="rotate(-88.96063886089097)translate(54.362709017600764)rotate(0)" style="opacity: 1; fill: #000000;"><title>class name: rrr_vector
member_name: R_BV
 size: 631.40MB</title><tspan x="0"></tspan><tspan x="0" dy="1em"></tspan></text><text text-anchor="start" dy=".2em" transform="rotate(-89.99605489656348)translate(126.5452468691798)rotate(0)" style="opacity: 1; fill: #000000;"><title>class name: bit_vector
member_name: invert
 size: 2.40MB</title><tspan x="0"></tspan><tspan x="0" dy="1em"></tspan></text><text text-anchor="start" dy=".2em" transform="rotate(-89.88164756095865)translate(126.5452468691798)rotate(0)" style="opacity: 1; fill: #000000;"><title>class name: int_vector
member_name: btnrp
 size: 67.10MB</title><tspan x="0"></tspan><tspan x="0" dy="1em"></tspan></text><text text-anchor="start" dy=".2em" transform="rotate(-89.74176453281565)translate(126.5452468691798)rotate(0)" style="opacity: 1; fill: #eeeeee;"><title>class name: bit_vector
member_name: btnr
 size: 17.87MB</title><tspan x="0"></tspan><tspan x="0" dy="1em"></tspan></text><text text-anchor="start" dy=".2em" transform="rotate(-89.57426594388329)translate(126.5452468691798)rotate(0)" style="opacity: 1; fill: #000000;"><title>class name: int_vector
member_name: rank_samples
 size: 83.88MB</title><tspan x="0"></tspan><tspan x="0" dy="1em"></tspan></text><text text-anchor="start" dy=".2em" transform="rotate(-88.67873294891272)translate(126.5452468691798)rotate(0)" style="opacity: 1; fill: #000000;"><title>class name: int_vector
member_name: bt
 size: 460.14MB</title><tspan x="0"></tspan><tspan x="0" dy="1em"></tspan></text><text text-anchor="start" dy=".2em" transform="rotate(-87.92127773434088)translate(126.5452468691798)rotate(0)" style="opacity: 1; fill: #000000;"><title>class name: unsigned long
member_name: size
 size: 0.00MB</title><tspan x="0"></tspan><tspan x="0" dy="1em"></tspan></text><text text-anchor="start" dy=".2em" transform="rotate(-87.92127772178193)translate(54.362709017600764)rotate(0)" style="opacity: 1; fill: #eeeeee;"><title>class name: rank_support_rrr
member_name: R_RANK
 size: 0.00MB</title><tspan x="0"></tspan><tspan x="0" dy="1em"></tspan></text><text text-anchor="start" dy=".2em" transform="rotate(-87.92127772178193)translate(54.362709017600764)rotate(0)" style="opacity: 1; fill: #000000;"><title>class name: rank_support_rrr
member_name: D1_RANK
 size: 0.00MB</title><tspan x="0"></tspan><tspan x="0" dy="1em"></tspan></text><text text-anchor="start" dy=".2em" transform="rotate(-86.84129599663746)translate(54.362709017600764)rotate(0)" style="opacity: 1; fill: #000000;"><title>class name: rrr_vector
member_name: D1_BV
 size: 656.07MB</title><tspan x="0"></tspan><tspan x="0" dy="1em"></tspan></text><text text-anchor="start" dy=".2em" transform="rotate(-87.91732773291615)translate(126.5452468691798)rotate(0)" style="opacity: 1; fill: #000000;"><title>class name: bit_vector
member_name: invert
 size: 2.40MB</title><tspan x="0"></tspan><tspan x="0" dy="1em"></tspan></text><text text-anchor="start" dy=".2em" transform="rotate(-87.79882866820232)translate(126.5452468691798)rotate(0)" style="opacity: 1; fill: #000000;"><title>class name: int_vector
member_name: btnrp
 size: 69.59MB</title><tspan x="0"></tspan><tspan x="0" dy="1em"></tspan></text><text text-anchor="start" dy=".2em" transform="rotate(-87.61548963377105)translate(126.5452468691798)rotate(0)" style="opacity: 1; fill: #eeeeee;"><title>class name: bit_vector
member_name: btnr
 size: 41.79MB</title><tspan x="0"></tspan><tspan x="0" dy="1em"></tspan></text><text text-anchor="start" dy=".2em" transform="rotate(-87.41240075548245)translate(126.5452468691798)rotate(0)" style="opacity: 1; fill: #000000;"><title>class name: int_vector
member_name: rank_samples
 size: 81.58MB</title><tspan x="0"></tspan><tspan x="0" dy="1em"></tspan></text><text text-anchor="start" dy=".2em" transform="rotate(-86.51970806619397)translate(126.5452468691798)rotate(0)" style="opacity: 1; fill: #000000;"><title>class name: int_vector
member_name: bt
 size: 460.71MB</title><tspan x="0"></tspan><tspan x="0" dy="1em"></tspan></text><text text-anchor="start" dy=".2em" transform="rotate(-85.76131428405192)translate(126.5452468691798)rotate(0)" style="opacity: 1; fill: #000000;"><title>class name: unsigned long
member_name: size
 size: 0.00MB</title><tspan x="0"></tspan><tspan x="0" dy="1em"></tspan></text><text text-anchor="start" dy=".2em" transform="rotate(-38.716545020576014)translate(54.362709017600764)rotate(0)" style="opacity: 1; fill: #000000;"><title>class name: wt_int
member_name: WTD1
 size: 28579.08MB</title><tspan x="0">WTD1</tspan><tspan x="0" dy="1em"></tspan></text><text text-anchor="start" dy=".2em" transform="rotate(-85.76131426521351)translate(126.5452468691798)rotate(0)" style="opacity: 1; fill: #eeeeee;"><title>class name: unsigned int
member_name: max_level
 size: 0.00MB</title><tspan x="0"></tspan><tspan x="0" dy="1em"></tspan></text><text text-anchor="start" dy=".2em" transform="rotate(-85.76131425893404)translate(126.5452468691798)rotate(0)" style="opacity: 1; fill: #000000;"><title>class name: select_support_rrr
member_name: tree_select_1
 size: 0.00MB</title><tspan x="0"></tspan><tspan x="0" dy="1em"></tspan></text><text text-anchor="start" dy=".2em" transform="rotate(-85.76131425893404)translate(126.5452468691798)rotate(0)" style="opacity: 1; fill: #000000;"><title>class name: rank_support_rrr
member_name: tree_rank
 size: 0.00MB</title><tspan x="0"></tspan><tspan x="0" dy="1em"></tspan></text><text text-anchor="start" dy=".2em" transform="rotate(-85.7613142463751)translate(126.5452468691798)rotate(0)" style="opacity: 1; fill: #000000;"><title>class name: unsigned long
member_name: sigma
 size: 0.00MB</title><tspan x="0"></tspan><tspan x="0" dy="1em"></tspan></text><text text-anchor="start" dy=".2em" transform="rotate(-85.76131423381615)translate(126.5452468691798)rotate(0)" style="opacity: 1; fill: #eeeeee;"><title>class name: select_support_rrr
member_name: tree_select_0
 size: 0.00MB</title><tspan x="0"></tspan><tspan x="0" dy="1em"></tspan></text><text text-anchor="start" dy=".2em" transform="rotate(-38.716545014296535)translate(126.5452468691798)rotate(0)" style="opacity: 1; fill: #000000;"><title>class name: rrr_vector
member_name: tree
 size: 28579.08MB</title><tspan x="0">tree</tspan><tspan x="0" dy="1em"></tspan></text><text text-anchor="start" dy=".2em" transform="rotate(-85.72020806876563)translate(210.90012810658274)rotate(0)" style="opacity: 1; fill: #000000;"><title>class name: bit_vector
member_name: invert
 size: 24.97MB</title><tspan x="0"></tspan><tspan x="0" dy="1em"></tspan></text><text text-anchor="start" dy=".2em" transform="rotate(-84.11706852191065)translate(210.90012810658274)rotate(0)" style="opacity: 1; fill: #000000;"><title>class name: int_vector
member_name: btnrp
 size: 948.91MB</title><tspan x="0">btnrp</tspan><tspan x="0" dy="1em"></tspan></text><text text-anchor="start" dy=".2em" transform="rotate(-46.567817981618326)translate(210.90012810658274)rotate(0)" style="opacity: 1; fill: #eeeeee;"><title>class name: bit_vector
member_name: btnr
 size: 21861.76MB</title><tspan x="0">btnr</tspan><tspan x="0" dy="1em"></tspan></text><text text-anchor="start" dy=".2em" transform="rotate(-9.018567428767042)translate(210.90012810658274)rotate(0)" style="opacity: 1; fill: #000000;"><title>class name: int_vector
member_name: rank_samples
 size: 948.91MB</title><tspan x="0">rank_samples</tspan><tspan x="0" dy="1em"></tspan></text><text text-anchor="start" dy=".2em" transform="rotate(0.43584507285075347)translate(210.90012810658274)rotate(0)" style="opacity: 1; fill: #000000;"><title>class name: int_vector
member_name: bt
 size: 4794.52MB</title><tspan x="0">bt</tspan><tspan x="0" dy="1em"></tspan></text><text text-anchor="start" dy=".2em" transform="rotate(8.328224192664138)translate(210.90012810658274)rotate(0)" style="opacity: 1; fill: #000000;"><title>class name: unsigned long
member_name: size
 size: 0.00MB</title><tspan x="0"></tspan><tspan x="0" dy="1em"></tspan></text><text text-anchor="start" dy=".2em" transform="rotate(8.328224217781994)translate(126.5452468691798)rotate(0)" style="opacity: 1; fill: #000000;"><title>class name: unsigned long
member_name: size
 size: 0.00MB</title><tspan x="0"></tspan><tspan x="0" dy="1em"></tspan></text><text text-anchor="start" dy=".2em" transform="rotate(56.063876356350846)translate(54.362709017600764)rotate(0)" style="opacity: 1; fill: #000000;"><title>class name: wt_int
member_name: WTR1
 size: 28998.79MB</title><tspan x="0">WTR1</tspan><tspan x="0" dy="1em"></tspan></text><text text-anchor="start" dy=".2em" transform="rotate(8.328224236620429)translate(126.5452468691798)rotate(0)" style="opacity: 1; fill: #eeeeee;"><title>class name: unsigned int
member_name: max_level
 size: 0.00MB</title><tspan x="0"></tspan><tspan x="0" dy="1em"></tspan></text><text text-anchor="start" dy=".2em" transform="rotate(8.328224242899893)translate(126.5452468691798)rotate(0)" style="opacity: 1; fill: #000000;"><title>class name: select_support_rrr
member_name: tree_select_1
 size: 0.00MB</title><tspan x="0"></tspan><tspan x="0" dy="1em"></tspan></text><text text-anchor="start" dy=".2em" transform="rotate(8.328224242899893)translate(126.5452468691798)rotate(0)" style="opacity: 1; fill: #000000;"><title>class name: rank_support_rrr
member_name: tree_rank
 size: 0.00MB</title><tspan x="0"></tspan><tspan x="0" dy="1em"></tspan></text><text text-anchor="start" dy=".2em" transform="rotate(8.32822425545885)translate(126.5452468691798)rotate(0)" style="opacity: 1; fill: #000000;"><title>class name: unsigned long
member_name: sigma
 size: 0.00MB</title><tspan x="0"></tspan><tspan x="0" dy="1em"></tspan></text><text text-anchor="start" dy=".2em" transform="rotate(8.328224268017777)translate(126.5452468691798)rotate(0)" style="opacity: 1; fill: #eeeeee;"><title>class name: select_support_rrr
member_name: tree_select_0
 size: 0.00MB</title><tspan x="0"></tspan><tspan x="0" dy="1em"></tspan></text><text text-anchor="start" dy=".2em" transform="rotate(56.06387636263031)translate(126.5452468691798)rotate(0)" style="opacity: 1; fill: #000000;"><title>class name: rrr_vector
member_name: tree
 size: 28998.79MB</title><tspan x="0">tree</tspan><tspan x="0" dy="1em"></tspan></text><text text-anchor="start" dy=".2em" transform="rotate(8.389817298560729)translate(210.90012810658274)rotate(0)" style="opacity: 1; fill: #000000;"><title>class name: bit_vector
member_name: invert
 size: 37.42MB</title><tspan x="0"></tspan><tspan x="0" dy="1em"></tspan></text><text text-anchor="start" dy=".2em" transform="rotate(10.791944788004898)translate(210.90012810658274)rotate(0)" style="opacity: 1; fill: #000000;"><title>class name: int_vector
member_name: btnrp
 size: 1421.84MB</title><tspan x="0">btnrp</tspan><tspan x="0" dy="1em"></tspan></text><text text-anchor="start" dy=".2em" transform="rotate(44.23801811378931)translate(210.90012810658274)rotate(0)" style="opacity: 1; fill: #eeeeee;"><title>class name: bit_vector
member_name: btnr
 size: 18896.21MB</title><tspan x="0">btnr</tspan><tspan x="0" dy="1em"></tspan></text><text text-anchor="start" dy=".2em" transform="rotate(77.74568447011666)translate(210.90012810658274)rotate(0)" style="opacity: 1; fill: #000000;"><title>class name: int_vector
member_name: rank_samples
 size: 1459.26MB</title><tspan x="0">rank_samples</tspan><tspan x="0" dy="1em"></tspan></text><text text-anchor="end" dy=".2em" transform="rotate(91.97367019584291)translate(210.90012810658274)rotate(-180)" style="opacity: 1; fill: #000000;"><title>class name: int_vector
member_name: bt
 size: 7184.05MB</title><tspan x="0">bt</tspan><tspan x="0" dy="1em"></tspan></text><text text-anchor="end" dy=".2em" transform="rotate(103.79952844468392)translate(210.90012810658274)rotate(-180)" style="opacity: 1; fill: #000000;"><title>class name: unsigned long
member_name: size
 size: 0.00MB</title><tspan x="0"></tspan><tspan x="0" dy="1em"></tspan></text><text text-anchor="end" dy=".2em" transform="rotate(103.7995284698018)translate(126.5452468691798)rotate(-180)" style="opacity: 1; fill: #000000;"><title>class name: unsigned long
member_name: size
 size: 0.00MB</title><tspan x="0"></tspan><tspan x="0" dy="1em"></tspan></text><text text-anchor="end" dy=".2em" transform="rotate(108.98929443133068)translate(54.362709017600764)rotate(-180)" style="opacity: 1; fill: #000000;"><title>class name: surf::df_sada
member_name: DF
 size: 3152.72MB</title><tspan x="0">DF</tspan><tspan x="0" dy="1em"></tspan></text><text text-anchor="end" dy=".2em" transform="rotate(103.79952848236076)translate(126.5452468691798)rotate(-180)" style="opacity: 1; fill: #eeeeee;"><title>class name: select_support_rrr
member_name: m_sel
 size: 0.00MB</title><tspan x="0"></tspan><tspan x="0" dy="1em"></tspan></text><text text-anchor="end" dy=".2em" transform="rotate(108.98929443133068)translate(126.5452468691798)rotate(-180)" style="opacity: 1; fill: #000000;"><title>class name: rrr_vector
member_name: m_bv
 size: 3152.72MB</title><tspan x="0">m_bv</tspan><tspan x="0" dy="1em"></tspan></text><text text-anchor="end" dy=".2em" transform="rotate(103.80742354954515)translate(210.90012810658274)rotate(-180)" style="opacity: 1; fill: #000000;"><title>class name: bit_vector
member_name: invert
 size: 4.80MB</title><tspan x="0"></tspan><tspan x="0" dy="1em"></tspan></text><text text-anchor="end" dy=".2em" transform="rotate(104.08375022438625)translate(210.90012810658274)rotate(-180)" style="opacity: 1; fill: #000000;"><title>class name: int_vector
member_name: btnrp
 size: 163.07MB</title><tspan x="0"></tspan><tspan x="0" dy="1em"></tspan></text><text text-anchor="end" dy=".2em" transform="rotate(107.46555044435593)translate(210.90012810658274)rotate(-180)" style="opacity: 1; fill: #eeeeee;"><title>class name: bit_vector
member_name: btnr
 size: 1891.33MB</title><tspan x="0">btnr</tspan><tspan x="0" dy="1em"></tspan></text><text text-anchor="end" dy=".2em" transform="rotate(110.86314076101758)translate(210.90012810658274)rotate(-180)" style="opacity: 1; fill: #000000;"><title>class name: int_vector
member_name: rank_samples
 size: 172.66MB</title><tspan x="0"></tspan><tspan x="0" dy="1em"></tspan></text><text text-anchor="end" dy=".2em" transform="rotate(112.6632114102745)translate(210.90012810658274)rotate(-180)" style="opacity: 1; fill: #000000;"><title>class name: int_vector
member_name: bt
 size: 920.86MB</title><tspan x="0">bt</tspan><tspan x="0" dy="1em"></tspan></text><text text-anchor="end" dy=".2em" transform="rotate(114.17906036774164)translate(210.90012810658274)rotate(-180)" style="opacity: 1; fill: #000000;"><title>class name: unsigned long
member_name: size
 size: 0.00MB</title><tspan x="0"></tspan><tspan x="0" dy="1em"></tspan></text><text text-anchor="end" dy=".2em" transform="rotate(114.69151674457319)translate(54.362709017600764)rotate(-180)" style="opacity: 1; fill: #000000;"><title>class name: surf::doc_perm
member_name: DOCPERM
 size: 311.31MB</title><tspan x="0"></tspan><tspan x="0" dy="1em"></tspan></text><text text-anchor="end" dy=".2em" transform="rotate(114.43528856243691)translate(126.5452468691798)rotate(-180)" style="opacity: 1; fill: #000000;"><title>class name: int_vector
member_name: len2id
 size: 155.66MB</title><tspan x="0"></tspan><tspan x="0" dy="1em"></tspan></text><text text-anchor="end" dy=".2em" transform="rotate(114.94774492670948)translate(126.5452468691798)rotate(-180)" style="opacity: 1; fill: #eeeeee;"><title>class name: int_vector
member_name: id2len
 size: 155.66MB</title><tspan x="0"></tspan><tspan x="0" dy="1em"></tspan></text><text text-anchor="end" dy=".2em" transform="rotate(192.60198655442287)translate(54.362709017600764)rotate(-180)" style="opacity: 1; fill: #000000;"><title>class name: csa_wt
member_name: CSA
 size: 47018.28MB</title><tspan x="0">CSA</tspan><tspan x="0" dy="1em"></tspan></text><text text-anchor="end" dy=".2em" transform="rotate(115.84267773288076)translate(126.5452468691798)rotate(-180)" style="opacity: 1; fill: #000000;"><title>class name: int_alphabet
member_name: alphabet
 size: 388.00MB</title><tspan x="0"></tspan><tspan x="0" dy="1em"></tspan></text><text text-anchor="end" dy=".2em" transform="rotate(115.20397312140474)translate(210.90012810658274)rotate(-180)" style="opacity: 1; fill: #000000;"><title>class name: unsigned long
member_name: m_sigma
 size: 0.00MB</title><tspan x="0"></tspan><tspan x="0" dy="1em"></tspan></text><text text-anchor="end" dy=".2em" transform="rotate(115.84267767950527)translate(210.90012810658274)rotate(-180)" style="opacity: 1; fill: #eeeeee;"><title>class name: int_vector
member_name: m_C
 size: 388.00MB</title><tspan x="0"></tspan><tspan x="0" dy="1em"></tspan></text><text text-anchor="end" dy=".2em" transform="rotate(116.48138222504684)translate(210.90012810658274)rotate(-180)" style="opacity: 1; fill: #000000;"><title>class name: rank_support_sd
member_name: m_char_rank
 size: 0.00MB</title><tspan x="0"></tspan><tspan x="0" dy="1em"></tspan></text><text text-anchor="end" dy=".2em" transform="rotate(116.48138222504684)translate(210.90012810658274)rotate(-180)" style="opacity: 1; fill: #000000;"><title>class name: select_support_sd
member_name: m_char_select
 size: 0.00MB</title><tspan x="0"></tspan><tspan x="0" dy="1em"></tspan></text><text text-anchor="end" dy=".2em" transform="rotate(116.48138229098126)translate(210.90012810658274)rotate(-180)" style="opacity: 1; fill: #000000;"><title>class name: sd_vector
member_name: m_char
 size: 0.00MB</title><tspan x="0"></tspan><tspan x="0" dy="1em"></tspan></text><text text-anchor="end" dy=".2em" transform="rotate(116.48138223760574)translate(304.27950330323876)rotate(-180)" style="opacity: 1; fill: #eeeeee;"><title>class name: select_support_mcl
member_name: high_1_select
 size: 0.00MB</title><tspan x="0"></tspan><tspan x="0" dy="1em"></tspan></text><text text-anchor="end" dy=".2em" transform="rotate(116.48138226272366)translate(304.27950330323876)rotate(-180)" style="opacity: 1; fill: #000000;"><title>class name: bit_vector
member_name: high
 size: 0.00MB</title><tspan x="0"></tspan><tspan x="0" dy="1em"></tspan></text><text text-anchor="end" dy=".2em" transform="rotate(116.48138228941141)translate(304.27950330323876)rotate(-180)" style="opacity: 1; fill: #000000;"><title>class name: int_vector
member_name: low
 size: 0.00MB</title><tspan x="0"></tspan><tspan x="0" dy="1em"></tspan></text><text text-anchor="end" dy=".2em" transform="rotate(116.48138231609914)translate(304.27950330323876)rotate(-180)" style="opacity: 1; fill: #000000;"><title>class name: select_support_mcl
member_name: high_0_select
 size: 0.00MB</title><tspan x="0"></tspan><tspan x="0" dy="1em"></tspan></text><text text-anchor="end" dy=".2em" transform="rotate(116.481382330228)translate(304.27950330323876)rotate(-180)" style="opacity: 1; fill: #eeeeee;"><title>class name: unsigned char
member_name: wl
 size: 0.00MB</title><tspan x="0"></tspan><tspan x="0" dy="1em"></tspan></text><text text-anchor="end" dy=".2em" transform="rotate(116.4813823443568)translate(304.27950330323876)rotate(-180)" style="opacity: 1; fill: #000000;"><title>class name: unsigned long
member_name: size
 size: 0.00MB</title><tspan x="0"></tspan><tspan x="0" dy="1em"></tspan></text><text text-anchor="end" dy=".2em" transform="rotate(116.48166905406177)translate(126.5452468691798)rotate(-180)" style="opacity: 1; fill: #000000;"><title>class name: int_vector
member_name: isa_samples
 size: 0.17MB</title><tspan x="0"></tspan><tspan x="0" dy="1em"></tspan></text><text text-anchor="end" dy=".2em" transform="rotate(116.48224244835382)translate(126.5452468691798)rotate(-180)" style="opacity: 1; fill: #000000;"><title>class name: int_vector
member_name: sa_samples
 size: 0.17MB</title><tspan x="0"></tspan><tspan x="0" dy="1em"></tspan></text><text text-anchor="end" dy=".2em" transform="rotate(193.2412645727499)translate(126.5452468691798)rotate(-180)" style="opacity: 1; fill: #000000;"><title>class name: wt_int
member_name: wavelet_tree
 size: 46629.93MB</title><tspan x="0">wavelet_tree</tspan><tspan x="0" dy="1em"></tspan></text><text text-anchor="end" dy=".2em" transform="rotate(116.48252915177929)translate(210.90012810658274)rotate(-180)" style="opacity: 1; fill: #eeeeee;"><title>class name: unsigned int
member_name: max_level
 size: 0.00MB</title><tspan x="0"></tspan><tspan x="0" dy="1em"></tspan></text><text text-anchor="end" dy=".2em" transform="rotate(116.48252915805875)translate(210.90012810658274)rotate(-180)" style="opacity: 1; fill: #000000;"><title>class name: select_support_rrr
member_name: tree_select_1
 size: 0.00MB</title><tspan x="0"></tspan><tspan x="0" dy="1em"></tspan></text><text text-anchor="end" dy=".2em" transform="rotate(116.48252915805875)translate(210.90012810658274)rotate(-180)" style="opacity: 1; fill: #000000;"><title>class name: rank_support_rrr
member_name: tree_rank
 size: 0.00MB</title><tspan x="0"></tspan><tspan x="0" dy="1em"></tspan></text><text text-anchor="end" dy=".2em" transform="rotate(116.48252917061771)translate(210.90012810658274)rotate(-180)" style="opacity: 1; fill: #000000;"><title>class name: unsigned long
member_name: sigma
 size: 0.00MB</title><tspan x="0"></tspan><tspan x="0" dy="1em"></tspan></text><text text-anchor="end" dy=".2em" transform="rotate(116.48252918317667)translate(210.90012810658274)rotate(-180)" style="opacity: 1; fill: #eeeeee;"><title>class name: select_support_rrr
member_name: tree_select_0
 size: 0.00MB</title><tspan x="0"></tspan><tspan x="0" dy="1em"></tspan></text><text text-anchor="end" dy=".2em" transform="rotate(193.2412645790294)translate(210.90012810658274)rotate(-180)" style="opacity: 1; fill: #000000;"><title>class name: rrr_vector
member_name: tree
 size: 46629.93MB</title><tspan x="0">tree</tspan><tspan x="0" dy="1em"></tspan></text><text text-anchor="end" dy=".2em" transform="rotate(116.5891783174001)translate(304.27950330323876)rotate(-180)" style="opacity: 1; fill: #000000;"><title>class name: bit_vector
member_name: invert
 size: 64.79MB</title><tspan x="0"></tspan><tspan x="0" dy="1em"></tspan></text><text text-anchor="end" dy=".2em" transform="rotate(120.74849403876854)translate(304.27950330323876)rotate(-180)" style="opacity: 1; fill: #000000;"><title>class name: int_vector
member_name: btnrp
 size: 2461.94MB</title><tspan x="0">btnrp</tspan><tspan x="0" dy="1em"></tspan></text><text text-anchor="end" dy=".2em" transform="rotate(172.87128262839093)translate(304.27950330323876)rotate(-180)" style="opacity: 1; fill: #eeeeee;"><title>class name: bit_vector
member_name: btnr
 size: 29201.97MB</title><tspan x="0">btnr</tspan><tspan x="0" dy="1em"></tspan></text><text text-anchor="end" dy=".2em" transform="rotate(224.99407121801323)translate(304.27950330323876)rotate(-180)" style="opacity: 1; fill: #000000;"><title>class name: int_vector
member_name: rank_samples
 size: 2461.94MB</title><tspan x="0">rank_samples</tspan><tspan x="0" dy="1em"></tspan></text><text text-anchor="end" dy=".2em" transform="rotate(249.52336887746117)translate(304.27950330323876)rotate(-180)" style="opacity: 1; fill: #000000;"><title>class name: int_vector
member_name: bt
 size: 12439.29MB</title><tspan x="0">bt</tspan><tspan x="0" dy="1em"></tspan></text><text text-anchor="end" dy=".2em" transform="rotate(269.99999996232316)translate(304.27950330323876)rotate(-180)" style="opacity: 1; fill: #000000;"><title>class name: unsigned long
member_name: size
 size: 0.00MB</title><tspan x="0"></tspan><tspan x="0" dy="1em"></tspan></text><text text-anchor="end" dy=".2em" transform="rotate(269.9999999874411)translate(210.90012810658274)rotate(-180)" style="opacity: 1; fill: #000000;"><title>class name: unsigned long
member_name: size
 size: 0.00MB</title><tspan x="0"></tspan><tspan x="0" dy="1em"></tspan></text></g></svg>