<svg width="810" height="810"><g transform="translate(405,405)"><p id="intro">Click to zoom!</p><path id="path-0" d="M0,49.362709017600764A49.362709017600764,49.362709017600764 0 1,1 0,-49.362709017600764A49.362709017600764,49.362709017600764 0 1,1 0,49.362709017600764Z" fill-rule="evenodd" style="fill: #3182bd;"><title>class name: surf::idx_d1r1
member_name: 
 size: 49457.02MB</title></path><path id="path-1" d="M0,-121.5452468691798A121.5452468691798,121.5452468691798 0 0,1 5.587121520268065,-121.41676617999505L2.2690764217856145,-49.310529643762855A49.362709017600764,49.362709017600764 0 0,0 0,-49.362709017600764Z" fill-rule="evenodd" style="fill: #6baed6;"><title>class name: rrr_vector
member_name: R_BV
 size: 361.95MB</title></path><path id="path-2" d="M0,-205.90012810658274A205.90012810658274,205.90012810658274 0 0,1 0.03626235057838228,-205.90012491338868L0.021406088445096543,-121.54524498420011A121.5452468691798,121.5452468691798 0 0,0 0,-121.5452468691798Z" fill-rule="evenodd" style="fill: #9ecae1;"><title>class name: bit_vector
member_name: invert
 size: 1.39MB</title></path><path id="path-3" d="M0.03626235057838228,-205.90012491338868A205.90012810658274,205.90012810658274 0 0,1 1.0153331498497773,-205.89762468980035L0.5993629993715758,-121.54376907305783A121.5452468691798,121.5452468691798 0 0,0 0.021406088445096543,-121.54524498420011Z" fill-rule="evenodd" style="fill: #c6dbef;"><title>class name: int_vector
member_name: btnrp
 size: 37.43MB</title></path><path id="path-4" d="M1.0153331498497773,-205.89762468980035A205.90012810658274,205.90012810658274 0 0,1 1.236546715794944,-205.89641499192456L0.729947947185201,-121.54305497429401A121.5452468691798,121.5452468691798 0 0,0 0.5993629993715758,-121.54376907305783Z" fill-rule="evenodd" style="fill: #e6550d;"><title>class name: bit_vector
member_name: btnr
 size: 8.46MB</title></path><path id="path-5" d="M1.236546715794944,-205.89641499192456A205.90012810658274,205.90012810658274 0 0,1 2.5056636252699254,-205.88488143645753L1.4791224595397445,-121.53624658199523A121.5452468691798,121.5452468691798 0 0,0 0.729947947185201,-121.54305497429401Z" fill-rule="evenodd" style="fill: #fd8d3c;"><title>class name: int_vector
member_name: rank_samples
 size: 48.52MB</title></path><path id="path-6" d="M2.5056636252699254,-205.88488143645753A205.90012810658274,205.90012810658274 0 0,1 9.464697651049102,-205.68247920686224L5.587121402583191,-121.41676618541044A121.5452468691798,121.5452468691798 0 0,0 1.4791224595397445,-121.53624658199523Z" fill-rule="evenodd" style="fill: #fdae6b;"><title>class name: int_vector
member_name: bt
 size: 266.16MB</title></path><path id="path-7" d="M9.464697651049102,-205.68247920686224A205.90012810658274,205.90012810658274 0 0,1 9.46469785040968,-205.68247919768845L5.587121520268065,-121.41676617999505A121.5452468691798,121.5452468691798 0 0,0 5.587121402583191,-121.41676618541044Z" fill-rule="evenodd" style="fill: #fdd0a2;"><title>class name: unsigned long
member_name: size
 size: 0.00MB</title></path><path id="path-8" d="M5.587121520268065,-121.41676617999505A121.5452468691798,121.5452468691798 0 0,1 5.587121520268065,-121.41676617999505L2.2690764217856145,-49.310529643762855A49.362709017600764,49.362709017600764 0 0,0 2.2690764217856145,-49.310529643762855Z" fill-rule="evenodd" style="fill: #31a354;"><title>class name: rank_support_rrr
member_name: R_RANK
 size: 0.00MB</title></path><path id="path-9" d="M5.587121520268065,-121.41676617999505A121.5452468691798,121.5452468691798 0 0,1 5.587121520268065,-121.41676617999505L2.2690764217856145,-49.310529643762855A49.362709017600764,49.362709017600764 0 0,0 2.2690764217856145,-49.310529643762855Z" fill-rule="evenodd" style="fill: #74c476;"><title>class name: rank_support_rrr
member_name: D1_RANK
 size: 0.00MB</title></path><path id="path-10" d="M5.587121520268065,-121.41676617999505A121.5452468691798,121.5452468691798 0 0,1 11.289536650755585,-121.01980581169789L4.584976599163886,-49.149313638558944A49.362709017600764,49.362709017600764 0 0,0 2.2690764217856145,-49.310529643762855Z" fill-rule="evenodd" style="fill: #a1d99b;"><title>class name: rrr_vector
member_name: D1_BV
 size: 370.22MB</title></path><path id="path-11" d="M9.46469785040968,-205.68247919768845A205.90012810658274,205.90012810658274 0 0,1 9.500960597703816,-205.68080732539934L5.608527842899098,-121.41577925428507A121.5452468691798,121.5452468691798 0 0,0 5.587121520268065,-121.41676617999505Z" fill-rule="evenodd" style="fill: #9ecae1;"><title>class name: bit_vector
member_name: invert
 size: 1.39MB</title></path><path id="path-12" d="M9.500960597703816,-205.68080732539934A205.90012810658274,205.90012810658274 0 0,1 10.516186750539436,-205.63139976797038L6.207827680685396,-121.3866133969341A121.5452468691798,121.5452468691798 0 0,0 5.608527842899098,-121.41577925428507Z" fill-rule="evenodd" style="fill: #c6dbef;"><title>class name: int_vector
member_name: btnrp
 size: 38.86MB</title></path><path id="path-13" d="M10.516186750539436,-205.63139976797038A205.90012810658274,205.90012810658274 0 0,1 10.97937398422805,-205.6071888364354L6.481252506512571,-121.37232140169635A121.5452468691798,121.5452468691798 0 0,0 6.207827680685396,-121.3866133969341Z" fill-rule="evenodd" style="fill: #e6550d;"><title>class name: bit_vector
member_name: btnr
 size: 17.73MB</title></path><path id="path-14" d="M10.97937398422805,-205.6071888364354A205.90012810658274,205.90012810658274 0 0,1 12.175410942680204,-205.53983098826367L7.1872870715055495,-121.33255927838007A121.5452468691798,121.5452468691798 0 0,0 6.481252506512571,-121.37232140169635Z" fill-rule="evenodd" style="fill: #fd8d3c;"><title>class name: int_vector
member_name: rank_samples
 size: 45.80MB</title></path><path id="path-15" d="M12.175410942680204,-205.53983098826367A205.90012810658274,205.90012810658274 0 0,1 19.124705230179178,-205.010020253074L11.289536533455447,-121.01980582264044A121.5452468691798,121.5452468691798 0 0,0 7.1872870715055495,-121.33255927838007Z" fill-rule="evenodd" style="fill: #fdae6b;"><title>class name: int_vector
member_name: bt
 size: 266.45MB</title></path><path id="path-16" d="M19.124705230179178,-205.010020253074A205.90012810658274,205.90012810658274 0 0,1 19.124705428888007,-205.01002023453714L11.289536650755585,-121.01980581169789A121.5452468691798,121.5452468691798 0 0,0 11.289536533455447,-121.01980582264044Z" fill-rule="evenodd" style="fill: #fdd0a2;"><title>class name: unsigned long
member_name: size
 size: 0.00MB</title></path><path id="path-17" d="M11.289536650755585,-121.01980581169789A121.5452468691798,121.5452468691798 0 0,1 116.58180000567614,-34.37922256140113L47.34692321306692,-13.962302955181212A49.362709017600764,49.362709017600764 0 0,0 4.584976599163886,-49.149313638558944Z" fill-rule="evenodd" style="fill: #c7e9c0;"><title>class name: wt_int
member_name: WTD1
 size: 9374.86MB</title></path><path id="path-18" d="M19.124705428888007,-205.01002023453714A205.90012810658274,205.90012810658274 0 0,1 19.124705528242398,-205.0100202252687L11.28953670940564,-121.01980580622663A121.5452468691798,121.5452468691798 0 0,0 11.289536650755585,-121.01980581169789Z" fill-rule="evenodd" style="fill: #756bb1;"><title>class name: unsigned int
member_name: max_level
 size: 0.00MB</title></path><path id="path-19" d="M19.124705528242398,-205.0100202252687A205.90012810658274,205.90012810658274 0 0,1 19.124705528242398,-205.0100202252687L11.28953670940564,-121.01980580622663A121.5452468691798,121.5452468691798 0 0,0 11.28953670940564,-121.01980580622663Z" fill-rule="evenodd" style="fill: #9e9ac8;"><title>class name: select_support_rrr
member_name: tree_select_1
 size: 0.00MB</title></path><path id="path-20" d="M19.124705528242398,-205.0100202252687A205.90012810658274,205.90012810658274 0 0,1 19.124705528242398,-205.0100202252687L11.28953670940564,-121.01980580622663A121.5452468691798,121.5452468691798 0 0,0 11.28953670940564,-121.01980580622663Z" fill-rule="evenodd" style="fill: #bcbddc;"><title>class name: rank_support_rrr
member_name: tree_rank
 size: 0.00MB</title></path><path id="path-21" d="M19.124705528242398,-205.0100202252687A205.90012810658274,205.90012810658274 0 0,1 19.124705726951188,-205.01002020673184L11.289536826705756,-121.0198057952841A121.5452468691798,121.5452468691798 0 0,0 11.28953670940564,-121.01980580622663Z" fill-rule="evenodd" style="fill: #dadaeb;"><title>class name: unsigned long
member_name: sigma
 size: 0.00MB</title></path><path id="path-22" d="M19.124705726951188,-205.01002020673184A205.90012810658274,205.90012810658274 0 0,1 19.124705726951188,-205.01002020673184L11.289536826705756,-121.0198057952841A121.5452468691798,121.5452468691798 0 0,0 11.289536826705756,-121.0198057952841Z" fill-rule="evenodd" style="fill: #636363;"><title>class name: select_support_rrr
member_name: tree_select_0
 size: 0.00MB</title></path><path id="path-23" d="M19.124705726951188,-205.01002020673184A205.90012810658274,205.90012810658274 0 0,1 197.4919477932325,-58.23910465608316L116.58179997235361,-34.37922267439967A121.5452468691798,121.5452468691798 0 0,0 11.289536826705756,-121.0198057952841Z" fill-rule="evenodd" style="fill: #969696;"><title>class name: rrr_vector
member_name: tree
 size: 9374.86MB</title></path><path id="path-24" d="M27.79810038690097,-297.98571561790146A299.27950330323876,299.27950330323876 0 0,1 28.12770948027414,-297.9547835776874L19.351472190412824,-204.98873939407216A205.90012810658274,205.90012810658274 0 0,0 19.124705726951188,-205.01002020673184Z" fill-rule="evenodd" style="fill: #9ecae1;"><title>class name: bit_vector
member_name: invert
 size: 8.71MB</title></path><path id="path-25" d="M28.12770948027414,-297.9547835776874A299.27950330323876,299.27950330323876 0 0,1 39.967564425874954,-296.59874391388877L27.4971274162319,-204.05580300046006A205.90012810658274,205.90012810658274 0 0,0 19.351472190412824,-204.98873939407216Z" fill-rule="evenodd" style="fill: #c6dbef;"><title>class name: int_vector
member_name: btnrp
 size: 313.46MB</title></path><path id="path-26" d="M39.967564425874954,-296.59874391388877A299.27950330323876,299.27950330323876 0 0,1 256.68224339492133,-153.89102320533064L176.5938068406551,-105.87487964494953A205.90012810658274,205.90012810658274 0 0,0 27.4971274162319,-204.05580300046006Z" fill-rule="evenodd" style="fill: #e6550d;"><title>class name: bit_vector
member_name: btnr
 size: 7058.77MB</title></path><path id="path-27" d="M256.68224339492133,-153.89102320533064A299.27950330323876,299.27950330323876 0 0,1 262.7640734006482,-143.25942491624082L180.77802114026525,-98.56048816293976A205.90012810658274,205.90012810658274 0 0,0 176.5938068406551,-105.87487964494953Z" fill-rule="evenodd" style="fill: #fd8d3c;"><title>class name: int_vector
member_name: rank_samples
 size: 322.16MB</title></path><path id="path-28" d="M262.7640734006482,-143.25942491624082A299.27950330323876,299.27950330323876 0 0,1 287.0580633852656,-84.65157613969103L197.49194773678346,-58.23910484750495A205.90012810658274,205.90012810658274 0 0,0 180.77802114026525,-98.56048816293976Z" fill-rule="evenodd" style="fill: #fdae6b;"><title>class name: int_vector
member_name: bt
 size: 1671.76MB</title></path><path id="path-29" d="M287.0580633852656,-84.65157613969103A299.27950330323876,299.27950330323876 0 0,1 287.05806346731526,-84.65157586145604L197.4919477932325,-58.23910465608316A205.90012810658274,205.90012810658274 0 0,0 197.49194773678346,-58.23910484750495Z" fill-rule="evenodd" style="fill: #fdd0a2;"><title>class name: unsigned long
member_name: size
 size: 0.00MB</title></path><path id="path-30" d="M197.4919477932325,-58.23910465608316A205.90012810658274,205.90012810658274 0 0,1 197.49194784968154,-58.23910446466137L116.58180000567614,-34.37922256140116A121.5452468691798,121.5452468691798 0 0,0 116.58179997235361,-34.37922267439967Z" fill-rule="evenodd" style="fill: #fdd0a2;"><title>class name: unsigned long
member_name: size
 size: 0.00MB</title></path><path id="path-31" d="M116.58180000567614,-34.37922256140113A121.5452468691798,121.5452468691798 0 0,1 -14.025256139326535,120.73333933390604L-5.696023954338991,49.032972097027866A49.362709017600764,49.362709017600764 0 0,0 47.34692321306692,-13.962302955181212Z" fill-rule="evenodd" style="fill: #bdbdbd;"><title>class name: wt_int
member_name: WTR1
 size: 15531.79MB</title></path><path id="path-32" d="M197.49194784968154,-58.239104464661324A205.90012810658274,205.90012810658274 0 0,1 197.49194787790609,-58.23910436895043L116.58180002233742,-34.379222504901875A121.5452468691798,121.5452468691798 0 0,0 116.58180000567614,-34.37922256140113Z" fill-rule="evenodd" style="fill: #756bb1;"><title>class name: unsigned int
member_name: max_level
 size: 0.00MB</title></path><path id="path-33" d="M197.49194787790609,-58.23910436895043A205.90012810658274,205.90012810658274 0 0,1 197.49194787790609,-58.23910436895043L116.58180002233742,-34.379222504901875A121.5452468691798,121.5452468691798 0 0,0 116.58180002233742,-34.379222504901875Z" fill-rule="evenodd" style="fill: #9e9ac8;"><title>class name: select_support_rrr
member_name: tree_select_1
 size: 0.00MB</title></path><path id="path-34" d="M197.49194787790609,-58.23910436895043A205.90012810658274,205.90012810658274 0 0,1 197.49194787790609,-58.23910436895043L116.58180002233742,-34.379222504901875A121.5452468691798,121.5452468691798 0 0,0 116.58180002233742,-34.379222504901875Z" fill-rule="evenodd" style="fill: #bcbddc;"><title>class name: rank_support_rrr
member_name: tree_rank
 size: 0.00MB</title></path><path id="path-35" d="M197.49194787790609,-58.23910436895043A205.90012810658274,205.90012810658274 0 0,1 197.49194793435512,-58.23910417752864L116.58180005565994,-34.37922239190336A121.5452468691798,121.5452468691798 0 0,0 116.58180002233742,-34.379222504901875Z" fill-rule="evenodd" style="fill: #dadaeb;"><title>class name: unsigned long
member_name: sigma
 size: 0.00MB</title></path><path id="path-36" d="M197.49194793435512,-58.23910417752864A205.90012810658274,205.90012810658274 0 0,1 197.49194793435512,-58.23910417752864L116.58180005565994,-34.37922239190336A121.5452468691798,121.5452468691798 0 0,0 116.58180005565994,-34.37922239190336Z" fill-rule="evenodd" style="fill: #636363;"><title>class name: select_support_rrr
member_name: tree_select_0
 size: 0.00MB</title></path><path id="path-37" d="M197.49194793435512,-58.23910417752864A205.90012810658274,205.90012810658274 0 0,1 -23.759069861680384,204.52474019935792L-14.025256022304085,120.73333934750022A121.5452468691798,121.5452468691798 0 0,0 116.58180005565994,-34.37922239190336Z" fill-rule="evenodd" style="fill: #969696;"><title>class name: rrr_vector
member_name: tree
 size: 15531.79MB</title></path><path id="path-38" d="M287.0580636724396,-84.65157516586854A299.27950330323876,299.27950330323876 0 0,1 287.3359692989171,-83.70341596664362L197.6831431330296,-57.58678386012944A205.90012810658274,205.90012810658274 0 0,0 197.49194793435512,-58.23910417752864Z" fill-rule="evenodd" style="fill: #9ecae1;"><title>class name: bit_vector
member_name: invert
 size: 25.99MB</title></path><path id="path-39" d="M287.3359692989171,-83.70341596664362A299.27950330323876,299.27950330323876 0 0,1 295.39410508190895,-48.06811604682836L203.22702826951735,-33.070194058214135A205.90012810658274,205.90012810658274 0 0,0 197.6831431330296,-57.58678386012944Z" fill-rule="evenodd" style="fill: #c6dbef;"><title>class name: int_vector
member_name: btnrp
 size: 961.50MB</title></path><path id="path-40" d="M295.39410508190895,-48.06811604682836A299.27950330323876,299.27950330323876 0 0,1 179.6099854715271,239.39188419065275L123.56916731560442,164.69828063229815A205.90012810658274,205.90012810658274 0 0,0 203.22702826951735,-33.070194058214135Z" fill-rule="evenodd" style="fill: #e6550d;"><title>class name: bit_vector
member_name: btnr
 size: 8567.39MB</title></path><path id="path-41" d="M179.6099854715271,239.39188419065275A299.27950330323876,299.27950330323876 0 0,1 148.24448240603968,259.98421977804463L101.99013825403959,178.86552058244496A205.90012810658274,205.90012810658274 0 0,0 123.56916731560442,164.69828063229815Z" fill-rule="evenodd" style="fill: #fd8d3c;"><title>class name: int_vector
member_name: rank_samples
 size: 987.49MB</title></path><path id="path-42" d="M148.24448240603968,259.98421977804463A299.27950330323876,299.27950330323876 0 0,1 -34.53423090704028,297.2803525177745L-23.759069663441778,204.52474022238675A205.90012810658274,205.90012810658274 0 0,0 101.99013825403959,178.86552058244496Z" fill-rule="evenodd" style="fill: #fdae6b;"><title>class name: int_vector
member_name: bt
 size: 4989.42MB</title></path><path id="path-43" d="M-34.53423090704028,297.2803525177745A299.27950330323876,299.27950330323876 0 0,1 -34.53423119518337,297.2803524843017L-23.759069861680203,204.52474019935795A205.90012810658274,205.90012810658274 0 0,0 -23.759069663441778,204.52474022238675Z" fill-rule="evenodd" style="fill: #fdd0a2;"><title>class name: unsigned long
member_name: size
 size: 0.00MB</title></path><path id="path-44" d="M-23.759069861680384,204.52474019935792A205.90012810658274,205.90012810658274 0 0,1 -23.759070059918805,204.52474017632912L-14.025256139326535,120.73333933390604A121.5452468691798,121.5452468691798 0 0,0 -14.025256022304085,120.73333934750022Z" fill-rule="evenodd" style="fill: #fdd0a2;"><title>class name: unsigned long
member_name: size
 size: 0.00MB</title></path><path id="path-45" d="M-14.025256139326535,120.73333933390604A121.5452468691798,121.5452468691798 0 0,1 -49.201370377200035,111.14167620427273L-19.981965496445714,45.13754641598466A49.362709017600764,49.362709017600764 0 0,0 -5.696023954338991,49.032972097027866Z" fill-rule="evenodd" style="fill: #d9d9d9;"><title>class name: surf::df_sada
member_name: DF
 size: 2370.14MB</title></path><path id="path-46" d="M-23.759070059918805,204.52474017632912A205.90012810658274,205.90012810658274 0 0,1 -23.759070059918805,204.52474017632912L-14.025256139326535,120.73333933390604A121.5452468691798,121.5452468691798 0 0,0 -14.025256139326535,120.73333933390604Z" fill-rule="evenodd" style="fill: #3182bd;"><title>class name: select_support_rrr
member_name: m_sel
 size: 0.00MB</title></path><path id="path-47" d="M-23.759070059918805,204.52474017632912A205.90012810658274,205.90012810658274 0 0,1 -83.34812528365285,188.27626713425028L-49.201370377200035,111.14167620427273A121.5452468691798,121.5452468691798 0 0,0 -14.025256139326535,120.73333933390604Z" fill-rule="evenodd" style="fill: #6baed6;"><title>class name: rrr_vector
member_name: m_bv
 size: 2370.14MB</title></path><path id="path-48" d="M-34.5342314833267,297.2803524508289A299.27950330323876,299.27950330323876 0 0,1 -34.638997015935324,297.26816342010676L-23.8311472865487,204.51635429303445A205.90012810658274,205.90012810658274 0 0,0 -23.759070059918805,204.52474017632912Z" fill-rule="evenodd" style="fill: #9ecae1;"><title>class name: bit_vector
member_name: invert
 size: 2.77MB</title></path><path id="path-49" d="M-34.638997015935324,297.26816342010676A299.27950330323876,299.27950330323876 0 0,1 -38.19836182548933,296.83178106678884L-26.27994067926782,204.2161293145114A205.90012810658274,205.90012810658274 0 0,0 -23.8311472865487,204.51635429303445Z" fill-rule="evenodd" style="fill: #c6dbef;"><title>class name: int_vector
member_name: btnrp
 size: 94.32MB</title></path><path id="path-50" d="M-38.19836182548933,296.83178106678884A299.27950330323876,299.27950330323876 0 0,1 -98.89110626398818,282.4690606054367L-68.03570315914949,194.3347777675094A205.90012810658274,205.90012810658274 0 0,0 -26.27994067926782,204.2161293145114Z" fill-rule="evenodd" style="fill: #e6550d;"><title>class name: bit_vector
member_name: btnr
 size: 1643.35MB</title></path><path id="path-51" d="M-98.89110626398818,282.4690606054367A299.27950330323876,299.27950330323876 0 0,1 -102.36765284480818,281.2278164557662L-70.42751876449033,193.48081908805466A205.90012810658274,205.90012810658274 0 0,0 -68.03570315914949,194.3347777675094Z" fill-rule="evenodd" style="fill: #fd8d3c;"><title>class name: int_vector
member_name: rank_samples
 size: 97.09MB</title></path><path id="path-52" d="M-102.36765284480818,281.2278164557662A299.27950330323876,299.27950330323876 0 0,1 -121.14798427235607,273.6629076147844L-83.34812510116339,188.27626721503663A205.90012810658274,205.90012810658274 0 0,0 -70.42751876449033,193.48081908805466Z" fill-rule="evenodd" style="fill: #fdae6b;"><title>class name: int_vector
member_name: bt
 size: 532.61MB</title></path><path id="path-53" d="M-121.14798427235607,273.6629076147844A299.27950330323876,299.27950330323876 0 0,1 -121.14798453760774,273.6629074973599L-83.34812528365285,188.27626713425028A205.90012810658274,205.90012810658274 0 0,0 -83.34812510116339,188.27626721503663Z" fill-rule="evenodd" style="fill: #fdd0a2;"><title>class name: unsigned long
member_name: size
 size: 0.00MB</title></path><path id="path-54" d="M-49.201370377200035,111.14167620427273A121.5452468691798,121.5452468691798 0 0,1 -51.31356441086825,110.18241758076239L-20.83978282915389,44.74796635814883A49.362709017600764,49.362709017600764 0 0,0 -19.981965496445714,45.13754641598466Z" fill-rule="evenodd" style="fill: #9ecae1;"><title>class name: surf::doc_perm
member_name: DOCPERM
 size: 150.23MB</title></path><path id="path-55" d="M-83.34812528365285,188.27626713425028A205.90012810658274,205.90012810658274 0 0,1 -85.14105212243247,187.47230194829393L-50.259755999597715,110.6670861790023A121.5452468691798,121.5452468691798 0 0,0 -49.201370377200035,111.14167620427273Z" fill-rule="evenodd" style="fill: #c6dbef;"><title>class name: int_vector
member_name: len2id
 size: 75.12MB</title></path><path id="path-56" d="M-85.14105212243247,187.47230194829393A205.90012810658274,205.90012810658274 0 0,1 -86.92622507217303,186.65126345409232L-51.31356441086825,110.18241758076239A121.5452468691798,121.5452468691798 0 0,0 -50.259755999597715,110.6670861790023Z" fill-rule="evenodd" style="fill: #e6550d;"><title>class name: int_vector
member_name: id2len
 size: 75.12MB</title></path><path id="path-57" d="M-51.31356441086825,110.18241758076239A121.5452468691798,121.5452468691798 0 0,1 -2.2327499598355525e-14,-121.5452468691798L-9.06778252670358e-15,-49.362709017600764A49.362709017600764,49.362709017600764 0 0,0 -20.83978282915389,44.74796635814883Z" fill-rule="evenodd" style="fill: #fd8d3c;"><title>class name: csa_wt
member_name: CSA
 size: 21297.83MB</title></path><path id="path-58" d="M-86.92622507217303,186.65126345409232A205.90012810658274,205.90012810658274 0 0,1 -90.78337140198668,184.80595832168416L-53.59048287215776,109.0931124407898A121.5452468691798,121.5452468691798 0 0,0 -51.31356441086825,110.18241758076239Z" fill-rule="evenodd" style="fill: #fdae6b;"><title>class name: int_alphabet
member_name: alphabet
 size: 163.46MB</title></path><path id="path-59" d="M-126.34881630650992,271.30093570678457A299.27950330323876,299.27950330323876 0 0,1 -126.34881656947196,271.30093558431923L-86.92622525308725,186.6512633698379A205.90012810658274,205.90012810658274 0 0,0 -86.92622507217303,186.65126345409232Z" fill-rule="evenodd" style="fill: #fdd0a2;"><title>class name: unsigned long
member_name: m_sigma
 size: 0.00MB</title></path><path id="path-60" d="M-126.34881656947196,271.30093558431923A299.27950330323876,299.27950330323876 0 0,1 -131.955245826124,268.6187525032464L-90.78337046157657,184.80595878364764A205.90012810658274,205.90012810658274 0 0,0 -86.92622525308725,186.6512633698379Z" fill-rule="evenodd" style="fill: #31a354;"><title>class name: int_vector
member_name: m_C
 size: 163.46MB</title></path><path id="path-61" d="M-131.955245826124,268.6187525032464A299.27950330323876,299.27950330323876 0 0,1 -131.955245826124,268.6187525032464L-90.78337046157657,184.80595878364764A205.90012810658274,205.90012810658274 0 0,0 -90.78337046157657,184.80595878364764Z" fill-rule="evenodd" style="fill: #74c476;"><title>class name: rank_support_sd
member_name: m_char_rank
 size: 0.00MB</title></path><path id="path-62" d="M-131.955245826124,268.6187525032464A299.27950330323876,299.27950330323876 0 0,1 -131.955245826124,268.6187525032464L-90.78337046157657,184.80595878364764A205.90012810658274,205.90012810658274 0 0,0 -90.78337046157657,184.80595878364764Z" fill-rule="evenodd" style="fill: #a1d99b;"><title>class name: select_support_sd
member_name: m_char_select
 size: 0.00MB</title></path><path id="path-63" d="M-131.955245826124,268.6187525032464A299.27950330323876,299.27950330323876 0 0,1 -131.95524719302688,268.61875183177426L-90.78337140198668,184.80595832168416A205.90012810658274,205.90012810658274 0 0,0 -90.78337046157657,184.80595878364764Z" fill-rule="evenodd" style="fill: #c7e9c0;"><title>class name: sd_vector
member_name: m_char
 size: 0.00MB</title></path><path id="path-64" d="M-176.36389310954328,359.0205804786758A400,400 0 0,1 -176.36389345752895,359.0205803077327L-131.95524608648645,268.61875237534696A299.27950330323876,299.27950330323876 0 0,0 -131.955245826124,268.6187525032464Z" fill-rule="evenodd" style="fill: #756bb1;"><title>class name: select_support_mcl
member_name: high_1_select
 size: 0.00MB</title></path><path id="path-65" d="M-176.36389345752895,359.0205803077327A400,400 0 0,1 -176.36389380551472,359.02058013678953L-131.95524634684898,268.6187522474475A299.27950330323876,299.27950330323876 0 0,0 -131.95524608648645,268.61875237534696Z" fill-rule="evenodd" style="fill: #9e9ac8;"><title>class name: bit_vector
member_name: high
 size: 0.00MB</title></path><path id="path-66" d="M-176.36389380551472,359.02058013678953A400,400 0 0,1 -176.36389419699836,359.0205799444786L-131.95524663975655,268.61875210356067A299.27950330323876,299.27950330323876 0 0,0 -131.95524634684898,268.6187522474475Z" fill-rule="evenodd" style="fill: #bcbddc;"><title>class name: int_vector
member_name: low
 size: 0.00MB</title></path><path id="path-67" d="M-176.36389419699836,359.0205799444786A400,400 0 0,1 -176.36389454498413,359.02057977353536L-131.95524690011908,268.61875197566116A299.27950330323876,299.27950330323876 0 0,0 -131.95524663975655,268.61875210356067Z" fill-rule="evenodd" style="fill: #dadaeb;"><title>class name: select_support_mcl
member_name: high_0_select
 size: 0.00MB</title></path><path id="path-68" d="M-176.36389454498413,359.02057977353536A400,400 0 0,1 -176.36389458848242,359.0205797521674L-131.95524693266444,268.6187519596737A299.27950330323876,299.27950330323876 0 0,0 -131.95524690011908,268.61875197566116Z" fill-rule="evenodd" style="fill: #636363;"><title>class name: unsigned char
member_name: wl
 size: 0.00MB</title></path><path id="path-69" d="M-176.36389458848242,359.0205797521674A400,400 0 0,1 -176.36389493646806,359.0205795812243L-131.95524719302688,268.61875183177426A299.27950330323876,299.27950330323876 0 0,0 -131.95524693266444,268.6187519596737Z" fill-rule="evenodd" style="fill: #fdd0a2;"><title>class name: unsigned long
member_name: size
 size: 0.00MB</title></path><path id="path-70" d="M-90.78337140198668,184.80595832168416A205.90012810658274,205.90012810658274 0 0,1 -90.7856708544311,184.80482872971155L-53.59184026575236,109.09244562947485A121.5452468691798,121.5452468691798 0 0,0 -53.59048287215776,109.0931124407898Z" fill-rule="evenodd" style="fill: #969696;"><title>class name: int_vector
member_name: isa_samples
 size: 0.10MB</title></path><path id="path-71" d="M-90.7856708544311,184.80482872971155A205.90012810658274,205.90012810658274 0 0,1 -90.78797011369689,184.80369919712533L-53.59319754531137,109.09177885321637A121.5452468691798,121.5452468691798 0 0,0 -53.59184026575236,109.09244562947485Z" fill-rule="evenodd" style="fill: #bdbdbd;"><title>class name: int_vector
member_name: sa_samples
 size: 0.10MB</title></path><path id="path-72" d="M-90.78797011369689,184.80369919712533A205.90012810658274,205.90012810658274 0 0,1 -3.782323987172547e-14,-205.90012810658274L-2.2327499598355525e-14,-121.5452468691798A121.5452468691798,121.5452468691798 0 0,0 -53.59319754531137,109.09177885321637Z" fill-rule="evenodd" style="fill: #d9d9d9;"><title>class name: wt_int
member_name: wavelet_tree
 size: 21134.17MB</title></path><path id="path-73" d="M-131.96193150240114,268.61546815399277A299.27950330323876,299.27950330323876 0 0,1 -131.96193163258062,268.6154680900399L-90.78797020325857,184.80369915312662A205.90012810658274,205.90012810658274 0 0,0 -90.78797011369689,184.80369919712533Z" fill-rule="evenodd" style="fill: #756bb1;"><title>class name: unsigned int
member_name: max_level
 size: 0.00MB</title></path><path id="path-74" d="M-131.96193163258062,268.6154680900399A299.27950330323876,299.27950330323876 0 0,1 -131.96193163258062,268.6154680900399L-90.78797020325857,184.80369915312662A205.90012810658274,205.90012810658274 0 0,0 -90.78797020325857,184.80369915312662Z" fill-rule="evenodd" style="fill: #9e9ac8;"><title>class name: select_support_rrr
member_name: tree_select_1
 size: 0.00MB</title></path><path id="path-75" d="M-131.96193163258062,268.6154680900399A299.27950330323876,299.27950330323876 0 0,1 -131.96193163258062,268.6154680900399L-90.78797020325857,184.80369915312662A205.90012810658274,205.90012810658274 0 0,0 -90.78797020325857,184.80369915312662Z" fill-rule="evenodd" style="fill: #bcbddc;"><title>class name: rank_support_rrr
member_name: tree_rank
 size: 0.00MB</title></path><path id="path-76" d="M-131.96193163258062,268.6154680900399A299.27950330323876,299.27950330323876 0 0,1 -131.96193189294002,268.61546796213395L-90.7879703823822,184.8036990651291A205.90012810658274,205.90012810658274 0 0,0 -90.78797020325857,184.80369915312662Z" fill-rule="evenodd" style="fill: #dadaeb;"><title>class name: unsigned long
member_name: sigma
 size: 0.00MB</title></path><path id="path-77" d="M-131.96193189294002,268.61546796213395A299.27950330323876,299.27950330323876 0 0,1 -131.96193189294002,268.61546796213395L-90.7879703823822,184.8036990651291A205.90012810658274,205.90012810658274 0 0,0 -90.7879703823822,184.8036990651291Z" fill-rule="evenodd" style="fill: #636363;"><title>class name: select_support_rrr
member_name: tree_select_0
 size: 0.00MB</title></path><path id="path-78" d="M-131.96193189294002,268.61546796213395A299.27950330323876,299.27950330323876 0 0,1 -2.900806064213031e-7,-299.27950330323876L-1.9957141522940758e-7,-205.90012810658274A205.90012810658274,205.90012810658274 0 0,0 -90.7879703823822,184.8036990651291Z" fill-rule="evenodd" style="fill: #969696;"><title>class name: rrr_vector
member_name: tree
 size: 21134.17MB</title></path><path id="path-79" d="M-176.37282932701515,359.01619054742264A400,400 0 0,1 -178.0166665749962,358.20394529028596L-133.19184888065783,268.0077470693432A299.27950330323876,299.27950330323876 0 0,0 -131.96193189294002,268.61546796213395Z" fill-rule="evenodd" style="fill: #9ecae1;"><title>class name: bit_vector
member_name: invert
 size: 36.08MB</title></path><path id="path-80" d="M-178.0166665749962,358.20394529028596A400,400 0 0,1 -235.92453813688948,323.01642729882224L-176.51844647663572,241.68048980194564A299.27950330323876,299.27950330323876 0 0,0 -133.19184888065783,268.0077470693432Z" fill-rule="evenodd" style="fill: #c6dbef;"><title>class name: int_vector
member_name: btnrp
 size: 1335.01MB</title></path><path id="path-81" d="M-235.92453813688948,323.01642729882224A400,400 0 0,1 -346.91231706601667,-199.12770843829705L-259.55936485323286,-148.9871041883142A299.27950330323876,299.27950330323876 0 0,0 -176.51844647663572,241.68048980194564Z" fill-rule="evenodd" style="fill: #e6550d;"><title>class name: bit_vector
member_name: btnr
 size: 11500.43MB</title></path><path id="path-82" d="M-346.91231706601667,-199.12770843829705A400,400 0 0,1 -308.3234308774731,-254.82672931218096L-230.6872081244015,-190.66104244234597A299.27950330323876,299.27950330323876 0 0,0 -259.55936485323286,-148.9871041883142Z" fill-rule="evenodd" style="fill: #fd8d3c;"><title>class name: int_vector
member_name: rank_samples
 size: 1335.01MB</title></path><path id="path-83" d="M-308.3234308774731,-254.82672931218096A400,400 0 0,1 -7.754111085089062e-7,-400L-5.801616285258981e-7,-299.27950330323876A299.27950330323876,299.27950330323876 0 0,0 -230.6872081244015,-190.66104244234597Z" fill-rule="evenodd" style="fill: #fdae6b;"><title>class name: int_vector
member_name: bt
 size: 6927.63MB</title></path><path id="path-84" d="M-7.754111085089062e-7,-400A400,400 0 0,1 -3.877052764651042e-7,-400L-2.900806064213031e-7,-299.27950330323876A299.27950330323876,299.27950330323876 0 0,0 -5.801616285258981e-7,-299.27950330323876Z" fill-rule="evenodd" style="fill: #fdd0a2;"><title>class name: unsigned long
member_name: size
 size: 0.00MB</title></path><path id="path-85" d="M-2.900806064213031e-7,-299.27950330323876A299.27950330323876,299.27950330323876 0 0,1 -5.497675278895253e-14,-299.27950330323876L-3.782323987172547e-14,-205.90012810658274A205.90012810658274,205.90012810658274 0 0,0 -1.9957141522940758e-7,-205.90012810658274Z" fill-rule="evenodd" style="fill: #fdd0a2;"><title>class name: unsigned long
member_name: size
 size: 0.00MB</title></path><text text-anchor="start" dy=".2em" transform="rotate(90)translate(5)rotate(0)" style="opacity: 1; fill: #eeeeee;"><title>class name: surf::idx_d1r1
member_name: 
 size: 49457.02MB</title><tspan x="0"></tspan><tspan x="0" dy="1em"></tspan></text><text text-anchor="start" dy=".2em" transform="rotate(-88.6826661939601)translate(54.362709017600764)rotate(0)" style="opacity: 1; fill: #000000;"><title>class name: rrr_vector
member_name: R_BV
 size: 361.95MB</title><tspan x="0"></tspan><tspan x="0" dy="1em"></tspan></text><text text-anchor="start" dy=".2em" transform="rotate(-89.99495464215295)translate(126.5452468691798)rotate(0)" style="opacity: 1; fill: #000000;"><title>class name: bit_vector
member_name: invert
 size: 1.39MB</title><tspan x="0"></tspan><tspan x="0" dy="1em"></tspan></text><text text-anchor="start" dy=".2em" transform="rotate(-89.85368581296107)translate(126.5452468691798)rotate(0)" style="opacity: 1; fill: #000000;"><title>class name: int_vector
member_name: btnrp
 size: 37.43MB</title><tspan x="0"></tspan><tspan x="0" dy="1em"></tspan></text><text text-anchor="start" dy=".2em" transform="rotate(-89.68668335683472)translate(126.5452468691798)rotate(0)" style="opacity: 1; fill: #eeeeee;"><title>class name: bit_vector
member_name: btnr
 size: 8.46MB</title><tspan x="0"></tspan><tspan x="0" dy="1em"></tspan></text><text text-anchor="start" dy=".2em" transform="rotate(-89.47931837114028)translate(126.5452468691798)rotate(0)" style="opacity: 1; fill: #000000;"><title>class name: int_vector
member_name: rank_samples
 size: 48.52MB</title><tspan x="0"></tspan><tspan x="0" dy="1em"></tspan></text><text text-anchor="start" dy=".2em" transform="rotate(-88.33403240684115)translate(126.5452468691798)rotate(0)" style="opacity: 1; fill: #000000;"><title>class name: int_vector
member_name: bt
 size: 266.16MB</title><tspan x="0"></tspan><tspan x="0" dy="1em"></tspan></text><text text-anchor="start" dy=".2em" transform="rotate(-87.36533241568756)translate(126.5452468691798)rotate(0)" style="opacity: 1; fill: #000000;"><title>class name: unsigned long
member_name: size
 size: 0.00MB</title><tspan x="0"></tspan><tspan x="0" dy="1em"></tspan></text><text text-anchor="start" dy=".2em" transform="rotate(-87.36533238792019)translate(54.362709017600764)rotate(0)" style="opacity: 1; fill: #eeeeee;"><title>class name: rank_support_rrr
member_name: R_RANK
 size: 0.00MB</title><tspan x="0"></tspan><tspan x="0" dy="1em"></tspan></text><text text-anchor="start" dy=".2em" transform="rotate(-87.36533238792019)translate(54.362709017600764)rotate(0)" style="opacity: 1; fill: #000000;"><title>class name: rank_support_rrr
member_name: D1_RANK
 size: 0.00MB</title><tspan x="0"></tspan><tspan x="0" dy="1em"></tspan></text><text text-anchor="start" dy=".2em" transform="rotate(-86.01791155981523)translate(54.362709017600764)rotate(0)" style="opacity: 1; fill: #000000;"><title>class name: rrr_vector
member_name: D1_BV
 size: 370.22MB</title><tspan x="0"></tspan><tspan x="0" dy="1em"></tspan></text><text text-anchor="start" dy=".2em" transform="rotate(-87.36028161543712)translate(126.5452468691798)rotate(0)" style="opacity: 1; fill: #000000;"><title>class name: bit_vector
member_name: invert
 size: 1.39MB</title><tspan x="0"></tspan><tspan x="0" dy="1em"></tspan></text><text text-anchor="start" dy=".2em" transform="rotate(-87.21381015404722)translate(126.5452468691798)rotate(0)" style="opacity: 1; fill: #000000;"><title>class name: int_vector
member_name: btnrp
 size: 38.86MB</title><tspan x="0"></tspan><tspan x="0" dy="1em"></tspan></text><text text-anchor="start" dy=".2em" transform="rotate(-87.00785597259431)translate(126.5452468691798)rotate(0)" style="opacity: 1; fill: #eeeeee;"><title>class name: bit_vector
member_name: btnr
 size: 17.73MB</title><tspan x="0"></tspan><tspan x="0" dy="1em"></tspan></text><text text-anchor="start" dy=".2em" transform="rotate(-86.7766480953302)translate(126.5452468691798)rotate(0)" style="opacity: 1; fill: #000000;"><title>class name: int_vector
member_name: rank_samples
 size: 45.80MB</title><tspan x="0"></tspan><tspan x="0" dy="1em"></tspan></text><text text-anchor="start" dy=".2em" transform="rotate(-85.64023224892858)translate(126.5452468691798)rotate(0)" style="opacity: 1; fill: #000000;"><title>class name: int_vector
member_name: bt
 size: 266.45MB</title><tspan x="0"></tspan><tspan x="0" dy="1em"></tspan></text><text text-anchor="start" dy=".2em" transform="rotate(-84.67049075947764)translate(126.5452468691798)rotate(0)" style="opacity: 1; fill: #000000;"><title>class name: unsigned long
member_name: size
 size: 0.00MB</title><tspan x="0"></tspan><tspan x="0" dy="1em"></tspan></text><text text-anchor="start" dy=".2em" transform="rotate(-50.55046985403151)translate(54.362709017600764)rotate(0)" style="opacity: 1; fill: #000000;"><title>class name: wt_int
member_name: WTD1
 size: 9374.86MB</title><tspan x="0">WTD1</tspan><tspan x="0" dy="1em"></tspan></text><text text-anchor="start" dy=".2em" transform="rotate(-84.6704907178266)translate(126.5452468691798)rotate(0)" style="opacity: 1; fill: #eeeeee;"><title>class name: unsigned int
member_name: max_level
 size: 0.00MB</title><tspan x="0"></tspan><tspan x="0" dy="1em"></tspan></text><text text-anchor="start" dy=".2em" transform="rotate(-84.67049070394292)translate(126.5452468691798)rotate(0)" style="opacity: 1; fill: #000000;"><title>class name: select_support_rrr
member_name: tree_select_1
 size: 0.00MB</title><tspan x="0"></tspan><tspan x="0" dy="1em"></tspan></text><text text-anchor="start" dy=".2em" transform="rotate(-84.67049070394292)translate(126.5452468691798)rotate(0)" style="opacity: 1; fill: #000000;"><title>class name: rank_support_rrr
member_name: tree_rank
 size: 0.00MB</title><tspan x="0"></tspan><tspan x="0" dy="1em"></tspan></text><text text-anchor="start" dy=".2em" transform="rotate(-84.67049067617555)translate(126.5452468691798)rotate(0)" style="opacity: 1; fill: #000000;"><title>class name: unsigned long
member_name: sigma
 size: 0.00MB</title><tspan x="0"></tspan><tspan x="0" dy="1em"></tspan></text><text text-anchor="start" dy=".2em" transform="rotate(-84.67049064840819)translate(126.5452468691798)rotate(0)" style="opacity: 1; fill: #eeeeee;"><title>class name: select_support_rrr
member_name: tree_select_0
 size: 0.00MB</title><tspan x="0"></tspan><tspan x="0" dy="1em"></tspan></text><text text-anchor="start" dy=".2em" transform="rotate(-50.550469840147834)translate(126.5452468691798)rotate(0)" style="opacity: 1; fill: #000000;"><title>class name: rrr_vector
member_name: tree
 size: 9374.86MB</title><tspan x="0">tree</tspan><tspan x="0" dy="1em"></tspan></text><text text-anchor="start" dy=".2em" transform="rotate(-84.63880089408006)translate(210.90012810658274)rotate(0)" style="opacity: 1; fill: #000000;"><title>class name: bit_vector
member_name: invert
 size: 8.71MB</title><tspan x="0"></tspan><tspan x="0" dy="1em"></tspan></text><text text-anchor="start" dy=".2em" transform="rotate(-83.46628186864922)translate(210.90012810658274)rotate(0)" style="opacity: 1; fill: #000000;"><title>class name: int_vector
member_name: btnrp
 size: 313.46MB</title><tspan x="0"></tspan><tspan x="0" dy="1em"></tspan></text><text text-anchor="start" dy=".2em" transform="rotate(-56.634892428461704)translate(210.90012810658274)rotate(0)" style="opacity: 1; fill: #eeeeee;"><title>class name: bit_vector
member_name: btnr
 size: 7058.77MB</title><tspan x="0">btnr</tspan><tspan x="0" dy="1em"></tspan></text><text text-anchor="start" dy=".2em" transform="rotate(-29.771813261713426)translate(210.90012810658274)rotate(0)" style="opacity: 1; fill: #000000;"><title>class name: int_vector
member_name: rank_samples
 size: 322.16MB</title><tspan x="0"></tspan><tspan x="0" dy="1em"></tspan></text><text text-anchor="start" dy=".2em" transform="rotate(-22.514871675736075)translate(210.90012810658274)rotate(0)" style="opacity: 1; fill: #000000;"><title>class name: int_vector
member_name: bt
 size: 1671.76MB</title><tspan x="0">bt</tspan><tspan x="0" dy="1em"></tspan></text><text text-anchor="start" dy=".2em" transform="rotate(-16.430449059654833)translate(210.90012810658274)rotate(0)" style="opacity: 1; fill: #000000;"><title>class name: unsigned long
member_name: size
 size: 0.00MB</title><tspan x="0"></tspan><tspan x="0" dy="1em"></tspan></text><text text-anchor="start" dy=".2em" transform="rotate(-16.43044900412012)translate(126.5452468691798)rotate(0)" style="opacity: 1; fill: #000000;"><title>class name: unsigned long
member_name: size
 size: 0.00MB</title><tspan x="0"></tspan><tspan x="0" dy="1em"></tspan></text><text text-anchor="start" dy=".2em" transform="rotate(40.09787120619592)translate(54.362709017600764)rotate(0)" style="opacity: 1; fill: #000000;"><title>class name: wt_int
member_name: WTR1
 size: 15531.79MB</title><tspan x="0">WTR1</tspan><tspan x="0" dy="1em"></tspan></text><text text-anchor="start" dy=".2em" transform="rotate(-16.43044896246907)translate(126.5452468691798)rotate(0)" style="opacity: 1; fill: #eeeeee;"><title>class name: unsigned int
member_name: max_level
 size: 0.00MB</title><tspan x="0"></tspan><tspan x="0" dy="1em"></tspan></text><text text-anchor="start" dy=".2em" transform="rotate(-16.43044894858538)translate(126.5452468691798)rotate(0)" style="opacity: 1; fill: #000000;"><title>class name: select_support_rrr
member_name: tree_select_1
 size: 0.00MB</title><tspan x="0"></tspan><tspan x="0" dy="1em"></tspan></text><text text-anchor="start" dy=".2em" transform="rotate(-16.43044894858538)translate(126.5452468691798)rotate(0)" style="opacity: 1; fill: #000000;"><title>class name: rank_support_rrr
member_name: tree_rank
 size: 0.00MB</title><tspan x="0"></tspan><tspan x="0" dy="1em"></tspan></text><text text-anchor="start" dy=".2em" transform="rotate(-16.430448920818023)translate(126.5452468691798)rotate(0)" style="opacity: 1; fill: #000000;"><title>class name: unsigned long
member_name: sigma
 size: 0.00MB</title><tspan x="0"></tspan><tspan x="0" dy="1em"></tspan></text><text text-anchor="start" dy=".2em" transform="rotate(-16.430448893050666)translate(126.5452468691798)rotate(0)" style="opacity: 1; fill: #eeeeee;"><title>class name: select_support_rrr
member_name: tree_select_0
 size: 0.00MB</title><tspan x="0"></tspan><tspan x="0" dy="1em"></tspan></text><text text-anchor="start" dy=".2em" transform="rotate(40.09787122007958)translate(126.5452468691798)rotate(0)" style="opacity: 1; fill: #000000;"><title>class name: rrr_vector
member_name: tree
 size: 15531.79MB</title><tspan x="0">tree</tspan><tspan x="0" dy="1em"></tspan></text><text text-anchor="start" dy=".2em" transform="rotate(-16.335870140555315)translate(210.90012810658274)rotate(0)" style="opacity: 1; fill: #000000;"><title>class name: bit_vector
member_name: invert
 size: 25.99MB</title><tspan x="0"></tspan><tspan x="0" dy="1em"></tspan></text><text text-anchor="start" dy=".2em" transform="rotate(-12.741878958396867)translate(210.90012810658274)rotate(0)" style="opacity: 1; fill: #000000;"><title>class name: int_vector
member_name: btnrp
 size: 961.50MB</title><tspan x="0">btnrp</tspan><tspan x="0" dy="1em"></tspan></text><text text-anchor="start" dy=".2em" transform="rotate(21.938758206923424)translate(210.90012810658274)rotate(0)" style="opacity: 1; fill: #eeeeee;"><title>class name: bit_vector
member_name: btnr
 size: 8567.39MB</title><tspan x="0">btnr</tspan><tspan x="0" dy="1em"></tspan></text><text text-anchor="start" dy=".2em" transform="rotate(56.71397412473908)translate(210.90012810658274)rotate(0)" style="opacity: 1; fill: #000000;"><title>class name: int_vector
member_name: rank_samples
 size: 987.49MB</title><tspan x="0">rank_samples</tspan><tspan x="0" dy="1em"></tspan></text><text text-anchor="start" dy=".2em" transform="rotate(78.46707829228632)translate(210.90012810658274)rotate(0)" style="opacity: 1; fill: #000000;"><title>class name: int_vector
member_name: bt
 size: 4989.42MB</title><tspan x="0">bt</tspan><tspan x="0" dy="1em"></tspan></text><text text-anchor="end" dy=".2em" transform="rotate(96.62619130544246)translate(210.90012810658274)rotate(-180)" style="opacity: 1; fill: #000000;"><title>class name: unsigned long
member_name: size
 size: 0.00MB</title><tspan x="0"></tspan><tspan x="0" dy="1em"></tspan></text><text text-anchor="end" dy=".2em" transform="rotate(96.62619136097723)translate(126.5452468691798)rotate(-180)" style="opacity: 1; fill: #000000;"><title>class name: unsigned long
member_name: size
 size: 0.00MB</title><tspan x="0"></tspan><tspan x="0" dy="1em"></tspan></text><text text-anchor="end" dy=".2em" transform="rotate(105.25235553627792)translate(54.362709017600764)rotate(-180)" style="opacity: 1; fill: #000000;"><title>class name: surf::df_sada
member_name: DF
 size: 2370.14MB</title><tspan x="0">DF</tspan><tspan x="0" dy="1em"></tspan></text><text text-anchor="end" dy=".2em" transform="rotate(96.62619138874456)translate(126.5452468691798)rotate(-180)" style="opacity: 1; fill: #eeeeee;"><title>class name: select_support_rrr
member_name: m_sel
 size: 0.00MB</title><tspan x="0"></tspan><tspan x="0" dy="1em"></tspan></text><text text-anchor="end" dy=".2em" transform="rotate(105.25235553627792)translate(126.5452468691798)rotate(-180)" style="opacity: 1; fill: #000000;"><title>class name: rrr_vector
member_name: m_bv
 size: 2370.14MB</title><tspan x="0">m_bv</tspan><tspan x="0" dy="1em"></tspan></text><text text-anchor="end" dy=".2em" transform="rotate(96.63628749130734)translate(210.90012810658274)rotate(-180)" style="opacity: 1; fill: #000000;"><title>class name: bit_vector
member_name: invert
 size: 2.77MB</title><tspan x="0"></tspan><tspan x="0" dy="1em"></tspan></text><text text-anchor="end" dy=".2em" transform="rotate(96.98964930736406)translate(210.90012810658274)rotate(-180)" style="opacity: 1; fill: #000000;"><title>class name: int_vector
member_name: btnrp
 size: 94.32MB</title><tspan x="0"></tspan><tspan x="0" dy="1em"></tspan></text><text text-anchor="end" dy=".2em" transform="rotate(103.31391417021374)translate(210.90012810658274)rotate(-180)" style="opacity: 1; fill: #eeeeee;"><title>class name: bit_vector
member_name: btnr
 size: 1643.35MB</title><tspan x="0">btnr</tspan><tspan x="0" dy="1em"></tspan></text><text text-anchor="end" dy=".2em" transform="rotate(109.64827508009145)translate(210.90012810658274)rotate(-180)" style="opacity: 1; fill: #000000;"><title>class name: int_vector
member_name: rank_samples
 size: 97.09MB</title><tspan x="0"></tspan><tspan x="0" dy="1em"></tspan></text><text text-anchor="end" dy=".2em" transform="rotate(111.94007823444497)translate(210.90012810658274)rotate(-180)" style="opacity: 1; fill: #000000;"><title>class name: int_vector
member_name: bt
 size: 532.61MB</title><tspan x="0">bt</tspan><tspan x="0" dy="1em"></tspan></text><text text-anchor="end" dy=".2em" transform="rotate(113.87851965604384)translate(210.90012810658274)rotate(-180)" style="opacity: 1; fill: #000000;"><title>class name: unsigned long
member_name: size
 size: 0.00MB</title><tspan x="0"></tspan><tspan x="0" dy="1em"></tspan></text><text text-anchor="end" dy=".2em" transform="rotate(114.42530213175903)translate(54.362709017600764)rotate(-180)" style="opacity: 1; fill: #000000;"><title>class name: surf::doc_perm
member_name: DOCPERM
 size: 150.23MB</title><tspan x="0"></tspan><tspan x="0" dy="1em"></tspan></text><text text-anchor="end" dy=".2em" transform="rotate(114.1519109077851)translate(126.5452468691798)rotate(-180)" style="opacity: 1; fill: #000000;"><title>class name: int_vector
member_name: len2id
 size: 75.12MB</title><tspan x="0"></tspan><tspan x="0" dy="1em"></tspan></text><text text-anchor="end" dy=".2em" transform="rotate(114.6986933557329)translate(126.5452468691798)rotate(-180)" style="opacity: 1; fill: #eeeeee;"><title>class name: int_vector
member_name: id2len
 size: 75.12MB</title><tspan x="0"></tspan><tspan x="0" dy="1em"></tspan></text><text text-anchor="end" dy=".2em" transform="rotate(192.48604228985346)translate(54.362709017600764)rotate(-180)" style="opacity: 1; fill: #000000;"><title>class name: csa_wt
member_name: CSA
 size: 21297.83MB</title><tspan x="0">CSA</tspan><tspan x="0" dy="1em"></tspan></text><text text-anchor="end" dy=".2em" transform="rotate(115.5670124752123)translate(126.5452468691798)rotate(-180)" style="opacity: 1; fill: #000000;"><title>class name: int_alphabet
member_name: alphabet
 size: 163.46MB</title><tspan x="0"></tspan><tspan x="0" dy="1em"></tspan></text><text text-anchor="end" dy=".2em" transform="rotate(114.97208460747419)translate(210.90012810658274)rotate(-180)" style="opacity: 1; fill: #000000;"><title>class name: unsigned long
member_name: m_sigma
 size: 0.00MB</title><tspan x="0"></tspan><tspan x="0" dy="1em"></tspan></text><text text-anchor="end" dy=".2em" transform="rotate(115.56701235720095)translate(210.90012810658274)rotate(-180)" style="opacity: 1; fill: #eeeeee;"><title>class name: int_vector
member_name: m_C
 size: 163.46MB</title><tspan x="0"></tspan><tspan x="0" dy="1em"></tspan></text><text text-anchor="end" dy=".2em" transform="rotate(116.16194007916042)translate(210.90012810658274)rotate(-180)" style="opacity: 1; fill: #000000;"><title>class name: rank_support_sd
member_name: m_char_rank
 size: 0.00MB</title><tspan x="0"></tspan><tspan x="0" dy="1em"></tspan></text><text text-anchor="end" dy=".2em" transform="rotate(116.16194007916042)translate(210.90012810658274)rotate(-180)" style="opacity: 1; fill: #000000;"><title>class name: select_support_sd
member_name: m_char_select
 size: 0.00MB</title><tspan x="0"></tspan><tspan x="0" dy="1em"></tspan></text><text text-anchor="end" dy=".2em" transform="rotate(116.16194022493909)translate(210.90012810658274)rotate(-180)" style="opacity: 1; fill: #000000;"><title>class name: sd_vector
member_name: m_char
 size: 0.00MB</title><tspan x="0"></tspan><tspan x="0" dy="1em"></tspan></text><text text-anchor="end" dy=".2em" transform="rotate(116.1619401069278)translate(304.27950330323876)rotate(-180)" style="opacity: 1; fill: #eeeeee;"><title>class name: select_support_mcl
member_name: high_1_select
 size: 0.00MB</title><tspan x="0"></tspan><tspan x="0" dy="1em"></tspan></text><text text-anchor="end" dy=".2em" transform="rotate(116.16194016246249)translate(304.27950330323876)rotate(-180)" style="opacity: 1; fill: #000000;"><title>class name: bit_vector
member_name: high
 size: 0.00MB</title><tspan x="0"></tspan><tspan x="0" dy="1em"></tspan></text><text text-anchor="end" dy=".2em" transform="rotate(116.16194022146817)translate(304.27950330323876)rotate(-180)" style="opacity: 1; fill: #000000;"><title>class name: int_vector
member_name: low
 size: 0.00MB</title><tspan x="0"></tspan><tspan x="0" dy="1em"></tspan></text><text text-anchor="end" dy=".2em" transform="rotate(116.1619402804738)translate(304.27950330323876)rotate(-180)" style="opacity: 1; fill: #000000;"><title>class name: select_support_mcl
member_name: high_0_select
 size: 0.00MB</title><tspan x="0"></tspan><tspan x="0" dy="1em"></tspan></text><text text-anchor="end" dy=".2em" transform="rotate(116.1619403117121)translate(304.27950330323876)rotate(-180)" style="opacity: 1; fill: #eeeeee;"><title>class name: unsigned char
member_name: wl
 size: 0.00MB</title><tspan x="0"></tspan><tspan x="0" dy="1em"></tspan></text><text text-anchor="end" dy=".2em" transform="rotate(116.1619403429504)translate(304.27950330323876)rotate(-180)" style="opacity: 1; fill: #000000;"><title>class name: unsigned long
member_name: size
 size: 0.00MB</title><tspan x="0"></tspan><tspan x="0" dy="1em"></tspan></text><text text-anchor="end" dy=".2em" transform="rotate(116.16229682384318)translate(126.5452468691798)rotate(-180)" style="opacity: 1; fill: #000000;"><title>class name: int_vector
member_name: isa_samples
 size: 0.10MB</title><tspan x="0"></tspan><tspan x="0" dy="1em"></tspan></text><text text-anchor="end" dy=".2em" transform="rotate(116.1630097023268)translate(126.5452468691798)rotate(-180)" style="opacity: 1; fill: #000000;"><title>class name: int_vector
member_name: sa_samples
 size: 0.10MB</title><tspan x="0"></tspan><tspan x="0" dy="1em"></tspan></text><text text-anchor="end" dy=".2em" transform="rotate(193.08168306384243)translate(126.5452468691798)rotate(-180)" style="opacity: 1; fill: #000000;"><title>class name: wt_int
member_name: wavelet_tree
 size: 21134.17MB</title><tspan x="0">wavelet_tree</tspan><tspan x="0" dy="1em"></tspan></text><text text-anchor="end" dy=".2em" transform="rotate(116.16336614156862)translate(210.90012810658274)rotate(-180)" style="opacity: 1; fill: #eeeeee;"><title>class name: unsigned int
member_name: max_level
 size: 0.00MB</title><tspan x="0"></tspan><tspan x="0" dy="1em"></tspan></text><text text-anchor="end" dy=".2em" transform="rotate(116.16336615545228)translate(210.90012810658274)rotate(-180)" style="opacity: 1; fill: #000000;"><title>class name: select_support_rrr
member_name: tree_select_1
 size: 0.00MB</title><tspan x="0"></tspan><tspan x="0" dy="1em"></tspan></text><text text-anchor="end" dy=".2em" transform="rotate(116.16336615545228)translate(210.90012810658274)rotate(-180)" style="opacity: 1; fill: #000000;"><title>class name: rank_support_rrr
member_name: tree_rank
 size: 0.00MB</title><tspan x="0"></tspan><tspan x="0" dy="1em"></tspan></text><text text-anchor="end" dy=".2em" transform="rotate(116.16336618321964)translate(210.90012810658274)rotate(-180)" style="opacity: 1; fill: #000000;"><title>class name: unsigned long
member_name: sigma
 size: 0.00MB</title><tspan x="0"></tspan><tspan x="0" dy="1em"></tspan></text><text text-anchor="end" dy=".2em" transform="rotate(116.16336621098705)translate(210.90012810658274)rotate(-180)" style="opacity: 1; fill: #eeeeee;"><title>class name: select_support_rrr
member_name: tree_select_0
 size: 0.00MB</title><tspan x="0"></tspan><tspan x="0" dy="1em"></tspan></text><text text-anchor="end" dy=".2em" transform="rotate(193.08168307772615)translate(210.90012810658274)rotate(-180)" style="opacity: 1; fill: #000000;"><title>class name: rrr_vector
member_name: tree
 size: 21134.17MB</title><tspan x="0">tree</tspan><tspan x="0" dy="1em"></tspan></text><text text-anchor="end" dy=".2em" transform="rotate(116.2946854069915)translate(304.27950330323876)rotate(-180)" style="opacity: 1; fill: #000000;"><title>class name: bit_vector
member_name: invert
 size: 36.08MB</title><tspan x="0"></tspan><tspan x="0" dy="1em"></tspan></text><text text-anchor="end" dy=".2em" transform="rotate(121.28481322035742)translate(304.27950330323876)rotate(-180)" style="opacity: 1; fill: #000000;"><title>class name: int_vector
member_name: btnrp
 size: 1335.01MB</title><tspan x="0">btnrp</tspan><tspan x="0" dy="1em"></tspan></text><text text-anchor="end" dy=".2em" transform="rotate(167.99972527305357)translate(304.27950330323876)rotate(-180)" style="opacity: 1; fill: #eeeeee;"><title>class name: bit_vector
member_name: btnr
 size: 11500.43MB</title><tspan x="0">btnr</tspan><tspan x="0" dy="1em"></tspan></text><text text-anchor="end" dy=".2em" transform="rotate(214.71463735351716)translate(304.27950330323876)rotate(-180)" style="opacity: 1; fill: #000000;"><title>class name: int_vector
member_name: rank_samples
 size: 1335.01MB</title><tspan x="0">rank_samples</tspan><tspan x="0" dy="1em"></tspan></text><text text-anchor="end" dy=".2em" transform="rotate(244.78672294378822)translate(304.27950330323876)rotate(-180)" style="opacity: 1; fill: #000000;"><title>class name: int_vector
member_name: bt
 size: 6927.63MB</title><tspan x="0">bt</tspan><tspan x="0" dy="1em"></tspan></text><text text-anchor="end" dy=".2em" transform="rotate(269.99999991669796)translate(304.27950330323876)rotate(-180)" style="opacity: 1; fill: #000000;"><title>class name: unsigned long
member_name: size
 size: 0.00MB</title><tspan x="0"></tspan><tspan x="0" dy="1em"></tspan></text><text text-anchor="end" dy=".2em" transform="rotate(269.9999999722327)translate(210.90012810658274)rotate(-180)" style="opacity: 1; fill: #000000;"><title>class name: unsigned long
member_name: size
 size: 0.00MB</title><tspan x="0"></tspan><tspan x="0" dy="1em"></tspan></text></g></svg>